{"glyphs":{"0":{"ha":1253,"x_min":52,"x_max":1202,"o":"m 320 0 q 128 47 198 1 q 52 165 58 92 l 52 833 q 128 951 58 906 q 320 998 198 997 l 933 998 q 1125 951 1055 997 q 1202 833 1195 906 l 1202 165 q 1125 47 1195 92 q 933 0 1055 1 l 320 0 m 823 255 l 823 743 l 431 743 l 431 255 l 823 255 z "},"1":{"ha":901,"x_min":81,"x_max":819,"o":"m 746 0 l 155 0 q 81 87 84 3 l 81 171 q 157 258 84 255 l 260 258 l 260 741 l 157 741 q 81 827 84 743 l 81 911 q 155 998 84 996 l 505 998 q 640 895 628 991 l 640 258 l 743 258 q 819 171 817 255 l 819 87 q 746 0 817 3 z "},"2":{"ha":1256,"x_min":52,"x_max":1204,"o":"m 136 418 l 825 688 l 825 743 l 431 743 l 431 675 q 296 572 419 579 l 187 572 q 52 675 64 579 l 52 833 q 128 951 58 906 q 320 998 198 997 l 936 998 q 1128 951 1058 997 q 1204 833 1198 906 l 1204 648 q 1112 521 1203 555 l 429 255 l 1126 255 q 1204 171 1202 255 l 1204 87 q 1131 0 1202 3 l 320 0 q 128 47 198 1 q 52 165 58 92 l 52 296 q 136 418 62 380 z "},"3":{"ha":1253,"x_min":52,"x_max":1202,"o":"m 1202 833 l 1202 651 q 1156 551 1195 585 q 1036 499 1116 517 q 1156 448 1116 481 q 1202 347 1195 414 l 1202 165 q 1125 47 1195 92 q 933 0 1055 1 l 125 0 q 52 87 54 3 l 52 171 q 127 258 54 255 l 825 258 l 825 323 q 768 374 818 372 l 179 374 q 106 461 109 377 l 106 537 q 179 624 109 621 l 768 624 q 825 675 818 627 l 825 741 l 127 741 q 52 827 54 743 l 52 911 q 125 998 54 996 l 933 998 q 1125 951 1055 997 q 1202 833 1195 906 z "},"4":{"ha":1264,"x_min":49,"x_max":1218,"o":"m 317 222 q 124 275 199 218 q 49 412 49 331 l 152 879 q 372 998 210 998 l 857 998 q 1049 951 979 997 q 1126 833 1119 906 l 1126 475 l 1145 475 q 1218 388 1215 472 l 1218 304 q 1142 217 1215 220 l 1126 217 l 1126 103 q 990 0 1114 7 l 882 0 q 746 103 758 7 l 746 222 l 317 222 m 749 477 l 749 743 l 494 743 l 437 477 l 749 477 z "},"5":{"ha":1253,"x_min":52,"x_max":1202,"o":"m 52 833 q 128 951 58 906 q 320 998 198 997 l 1128 998 q 1202 911 1199 996 l 1202 827 q 1126 741 1199 743 l 429 741 l 429 624 l 933 624 q 1125 577 1055 623 q 1202 458 1195 532 l 1202 165 q 1125 47 1195 92 q 933 0 1055 1 l 125 0 q 52 87 54 3 l 52 171 q 127 258 54 255 l 825 258 l 825 374 l 320 374 q 128 421 198 376 q 52 540 58 467 l 52 833 z "},"6":{"ha":1253,"x_min":52,"x_max":1202,"o":"m 320 0 q 128 47 198 1 q 52 165 58 92 l 52 833 q 128 951 58 906 q 320 998 198 997 l 1128 998 q 1202 911 1199 996 l 1202 827 q 1126 741 1199 743 l 429 741 l 429 627 l 933 627 q 1125 580 1055 625 q 1202 461 1195 534 l 1202 165 q 1125 47 1195 92 q 933 0 1055 1 l 320 0 m 825 320 q 768 372 818 369 l 429 372 l 429 255 l 825 255 l 825 320 z "},"7":{"ha":1256,"x_min":52,"x_max":1204,"o":"m 1142 589 l 776 60 q 678 0 747 -3 l 458 0 q 385 87 388 3 q 415 190 384 152 l 827 743 l 130 743 q 52 827 54 743 l 52 911 q 125 998 54 996 l 936 998 q 1128 951 1058 997 q 1204 833 1198 906 l 1204 703 q 1142 589 1198 650 z "},"8":{"ha":1253,"x_min":52,"x_max":1202,"o":"m 1202 833 l 1202 651 q 1156 551 1195 585 q 1036 499 1116 517 q 1156 448 1116 481 q 1202 347 1195 414 l 1202 165 q 1125 47 1195 92 q 933 0 1055 1 l 320 0 q 128 47 198 1 q 52 165 58 92 l 52 347 q 98 448 58 414 q 217 499 137 481 q 98 551 137 517 q 52 651 58 585 l 52 833 q 128 951 58 906 q 320 998 198 997 l 933 998 q 1125 951 1055 997 q 1202 833 1195 906 m 825 258 l 825 323 q 768 374 818 372 l 486 374 q 429 323 435 372 l 429 258 l 825 258 m 768 624 q 825 675 818 627 l 825 741 l 429 741 l 429 675 q 486 624 435 627 l 768 624 z "},"9":{"ha":1253,"x_min":52,"x_max":1202,"o":"m 933 998 q 1125 951 1055 997 q 1202 833 1195 906 l 1202 165 q 1125 47 1195 92 q 933 0 1055 1 l 125 0 q 52 87 54 3 l 52 171 q 127 258 54 255 l 825 258 l 825 372 l 320 372 q 128 418 198 373 q 52 537 58 464 l 52 833 q 128 951 58 906 q 320 998 198 997 l 933 998 m 429 678 q 486 627 435 629 l 825 627 l 825 743 l 429 743 l 429 678 z "}," ":{"ha":458,"x_min":0,"x_max":0,"o":""},"!":{"ha":602,"x_min":76,"x_max":526,"o":"m 247 0 q 111 103 123 7 l 111 156 q 247 258 123 251 l 355 258 q 491 155 479 251 l 491 103 q 355 0 479 7 l 247 0 m 453 998 q 526 911 524 996 l 526 827 l 491 431 q 355 323 450 332 l 247 323 q 111 431 152 332 l 76 827 l 76 911 q 149 998 79 996 l 453 998 z "},"\"":{"ha":686,"x_min":43,"x_max":643,"o":"m 193 741 l 163 741 q 43 844 56 747 l 43 1057 q 163 1158 56 1152 l 193 1158 q 312 1057 300 1152 l 312 844 q 193 741 300 747 m 524 741 l 494 741 q 374 844 387 747 l 374 1057 q 494 1158 387 1152 l 524 1158 q 643 1057 631 1152 l 643 844 q 524 741 631 747 z "},"#":{"ha":1419,"x_min":65,"x_max":1354,"o":"m 264 -15 q 136 96 142 0 l 160 203 l 138 203 q 65 290 68 206 l 65 366 q 138 453 68 450 l 216 453 l 245 589 l 225 589 q 152 675 155 591 l 152 751 q 225 838 155 836 l 301 838 l 334 982 q 476 1074 353 1076 l 585 1067 q 713 956 707 1053 l 688 838 l 869 838 l 901 979 q 1043 1072 920 1073 l 1152 1065 q 1280 954 1274 1050 l 1255 838 l 1280 838 q 1354 751 1351 836 l 1354 675 q 1280 589 1351 591 l 1199 589 l 1168 453 l 1194 453 q 1267 366 1264 450 l 1267 290 q 1194 203 1264 206 l 1112 203 l 1082 69 q 940 -24 1063 -26 l 831 -18 q 703 94 709 -3 l 727 203 l 545 203 l 515 72 q 373 -22 496 -23 l 264 -15 m 601 453 l 783 453 l 814 589 l 631 589 l 601 453 z "},"$":{"ha":1305,"x_min":57,"x_max":1248,"o":"m 119 534 q 57 648 64 568 l 57 833 q 134 951 64 906 q 326 998 203 997 l 537 998 l 537 1038 q 624 1111 540 1108 l 678 1111 q 765 1038 762 1108 l 765 998 l 979 998 q 1171 951 1101 997 q 1248 833 1241 906 l 1248 675 q 1112 572 1236 579 l 1004 572 q 868 675 880 579 l 868 743 l 765 743 l 765 590 l 1185 464 q 1248 350 1241 430 l 1248 165 q 1171 47 1241 92 q 979 0 1101 1 l 765 0 l 765 -45 q 678 -118 762 -115 l 624 -118 q 537 -45 540 -115 l 537 0 l 326 0 q 134 47 203 1 q 57 165 64 92 l 57 323 q 193 426 69 419 l 301 426 q 437 323 425 419 l 437 255 l 537 255 l 537 410 l 119 534 m 437 743 l 437 688 l 537 658 l 537 743 l 437 743 m 868 255 l 868 311 l 765 342 l 765 255 l 868 255 z "},"%":{"ha":1133,"x_min":57,"x_max":1076,"o":"m 170 39 q 79 183 57 88 l 738 1001 q 899 1047 803 1088 l 964 1013 q 1055 869 1076 964 l 397 52 q 235 5 351 -33 l 170 39 m 195 667 q 106 688 138 667 q 72 743 75 709 l 72 974 q 106 1029 75 1008 q 195 1050 138 1050 l 353 1050 q 441 1029 410 1050 q 477 974 473 1008 l 477 743 q 441 688 473 709 q 353 667 410 667 l 195 667 m 313 758 l 313 959 l 235 959 l 235 758 l 313 758 m 947 377 q 1036 356 1004 377 q 1070 301 1067 335 l 1070 71 q 1036 16 1067 37 q 947 -5 1004 -5 l 789 -5 q 701 16 732 -5 q 665 71 669 37 l 665 301 q 701 356 669 335 q 789 377 732 377 l 947 377 m 829 286 l 829 85 l 907 85 l 907 286 l 829 286 z "},"&":{"ha":1293,"x_min":62,"x_max":1279,"o":"m 125 534 q 62 648 69 568 l 62 833 q 139 951 69 906 q 331 998 209 997 l 947 998 q 1139 951 1069 997 q 1215 833 1208 906 l 1215 648 q 1153 534 1208 568 l 1040 499 l 1211 454 q 1256 350 1279 433 l 1236 289 q 1142 227 1210 208 l 643 377 l 442 311 l 442 255 l 966 255 q 1039 168 1036 252 l 1039 87 q 966 0 1036 3 l 331 0 q 139 47 209 1 q 62 165 69 92 l 62 350 q 125 464 69 430 l 237 499 l 125 534 m 836 743 l 442 743 l 442 688 l 639 625 l 836 688 l 836 743 z "},"'":{"ha":483,"x_min":52,"x_max":431,"o":"m 187 738 q 52 841 64 745 l 52 1057 q 187 1158 64 1152 l 296 1158 q 431 1055 419 1152 l 431 841 q 296 738 419 745 l 187 738 z "},"(":{"ha":602,"x_min":57,"x_max":564,"o":"m 434 681 l 434 323 q 483 187 433 213 l 491 187 q 564 100 562 184 l 564 24 q 491 -62 560 -60 l 477 -62 q 260 -5 368 -61 q 104 134 152 52 q 57 331 57 217 l 57 673 q 104 869 57 787 q 260 1008 152 952 q 477 1066 368 1065 l 491 1066 q 564 979 560 1063 l 564 903 q 491 817 562 819 l 483 817 q 434 681 433 791 z "},")":{"ha":602,"x_min":38,"x_max":545,"o":"m 168 681 q 119 817 170 791 l 111 817 q 38 903 41 819 l 38 979 q 111 1066 42 1063 l 125 1066 q 342 1008 235 1065 q 498 869 450 952 q 545 673 545 787 l 545 331 q 498 134 545 217 q 342 -5 450 52 q 125 -62 235 -61 l 111 -62 q 38 24 42 -60 l 38 100 q 111 187 41 184 l 119 187 q 168 323 170 213 l 168 681 z "},"*":{"ha":865,"x_min":62,"x_max":803,"o":"m 754 355 q 745 241 803 304 l 692 189 q 578 178 631 130 l 433 323 l 289 178 q 175 187 237 129 l 122 240 q 111 354 64 301 l 256 499 l 111 643 q 121 757 62 694 l 174 810 q 288 821 235 868 l 433 675 l 576 821 q 690 811 628 869 l 743 758 q 754 644 802 697 l 609 499 l 754 355 z "},"+":{"ha":930,"x_min":62,"x_max":868,"o":"m 795 624 q 868 537 865 621 l 868 461 q 795 374 865 377 l 590 374 l 590 170 q 503 96 587 99 l 427 96 q 340 170 343 99 l 340 374 l 136 374 q 62 461 65 377 l 62 537 q 136 624 65 621 l 340 624 l 340 829 q 427 902 343 899 l 503 902 q 590 829 587 899 l 590 624 l 795 624 z "},",":{"ha":488,"x_min":52,"x_max":437,"o":"m 57 103 l 57 156 q 193 258 69 251 l 301 258 q 437 155 425 251 l 437 76 q 214 -145 377 -73 q 57 103 52 -217 z "},"-":{"ha":909,"x_min":62,"x_max":846,"o":"m 773 624 q 846 537 844 621 l 846 461 q 773 374 844 377 l 136 374 q 62 461 65 377 l 62 537 q 136 624 65 621 l 773 624 z "},".":{"ha":483,"x_min":52,"x_max":431,"o":"m 187 0 q 52 103 64 7 l 52 156 q 187 258 64 251 l 296 258 q 431 155 419 251 l 431 103 q 296 0 419 7 l 187 0 z "},"/":{"ha":583,"x_min":3,"x_max":581,"o":"m 132 -39 q 3 72 9 -24 l 201 958 q 343 1050 220 1051 l 452 1043 q 581 932 574 1028 l 382 47 q 240 -46 363 -47 l 132 -39 z "},":":{"ha":510,"x_min":65,"x_max":445,"o":"m 201 125 q 65 228 77 132 l 65 281 q 201 382 77 376 l 309 382 q 445 279 433 376 l 445 228 q 309 125 433 132 l 201 125 m 201 616 q 65 719 77 623 l 65 772 q 201 873 77 867 l 309 873 q 445 770 433 867 l 445 719 q 309 616 433 623 l 201 616 z "},";":{"ha":510,"x_min":62,"x_max":448,"o":"m 201 616 q 65 719 77 623 l 65 772 q 201 873 77 867 l 309 873 q 445 770 433 867 l 445 719 q 309 616 433 623 l 201 616 m 68 228 l 68 281 q 203 382 80 376 l 312 382 q 448 279 435 376 l 448 201 q 225 -20 388 52 q 68 228 62 -92 z "},"<":{"ha":774,"x_min":62,"x_max":712,"o":"m 486 975 q 600 967 537 1024 l 654 914 q 665 802 712 853 l 366 495 l 665 189 q 654 76 712 137 l 600 23 q 486 15 537 -34 l 98 414 q 62 495 62 452 q 98 576 62 538 l 486 975 z "},"=":{"ha":930,"x_min":62,"x_max":868,"o":"m 795 822 q 868 735 865 819 l 868 659 q 795 572 865 575 l 136 572 q 62 659 65 575 l 62 735 q 136 822 65 819 l 795 822 m 795 423 q 868 336 865 420 l 868 260 q 795 174 865 176 l 136 174 q 62 260 65 176 l 62 336 q 136 423 65 420 l 795 423 z "},">":{"ha":774,"x_min":62,"x_max":712,"o":"m 289 975 l 677 576 q 712 495 712 538 q 677 414 712 452 l 289 15 q 175 23 237 -34 l 121 76 q 110 189 62 137 l 408 495 l 110 802 q 121 914 62 853 l 175 967 q 289 975 237 1024 z "},"?":{"ha":1272,"x_min":60,"x_max":1213,"o":"m 1150 534 l 819 396 q 689 320 795 326 l 581 320 q 445 423 457 327 l 445 437 q 507 551 452 517 l 833 688 l 833 743 l 439 743 l 439 675 q 304 572 427 579 l 195 572 q 60 675 72 579 l 60 833 q 136 951 66 906 q 328 998 206 997 l 944 998 q 1136 951 1066 997 q 1213 833 1206 906 l 1213 648 q 1150 534 1206 568 m 581 0 q 445 103 457 7 l 445 156 q 581 258 457 251 l 689 258 q 825 155 812 251 l 825 103 q 689 0 812 7 l 581 0 z "},"@":{"ha":1354,"x_min":54,"x_max":1299,"o":"m 54 582 q 235 1017 54 838 q 677 1196 416 1196 q 1118 1017 937 1196 q 1299 582 1299 838 q 1118 146 1299 326 q 677 -33 937 -33 q 235 146 416 -33 q 54 582 54 326 m 243 582 q 369 278 243 403 q 677 153 495 153 q 985 278 859 153 q 1111 582 1111 403 q 985 886 1111 761 q 677 1010 859 1010 q 369 886 495 1010 q 243 582 243 761 m 370 746 q 436 872 373 812 q 617 930 499 932 l 703 930 q 780 856 745 929 l 800 930 q 892 922 837 933 q 982 882 948 910 q 1004 788 1012 842 q 955 652 990 693 q 886 614 920 612 q 727 678 732 663 l 735 704 q 693 728 718 724 l 658 728 q 629 677 629 722 q 771 609 620 665 q 944 528 922 553 q 983 415 987 488 q 918 289 981 349 q 736 231 854 229 l 651 231 q 574 305 609 232 l 553 231 q 461 239 517 228 q 372 279 406 251 q 350 373 342 319 q 399 509 363 468 q 468 547 434 549 q 627 483 621 498 l 618 457 q 661 433 636 437 l 696 433 q 724 484 724 439 q 582 557 734 496 q 410 633 430 617 q 370 746 366 673 z "},"A":{"ha":1240,"x_min":46,"x_max":1194,"o":"m 401 998 l 838 998 q 1031 951 960 997 q 1109 833 1103 906 l 1194 100 q 1058 0 1181 7 l 949 0 q 814 103 826 7 l 800 225 l 439 225 l 426 103 q 290 0 414 7 l 182 0 q 46 100 58 7 l 130 833 q 208 951 137 906 q 401 998 279 997 m 741 743 l 499 743 l 469 477 l 770 477 l 741 743 z "},"B":{"ha":1256,"x_min":52,"x_max":1204,"o":"m 320 0 q 128 47 198 1 q 52 165 58 92 l 52 833 q 128 951 58 906 q 320 998 198 997 l 936 998 q 1128 951 1058 997 q 1204 833 1198 906 l 1204 651 q 1158 551 1198 585 q 1039 499 1119 517 q 1158 448 1119 481 q 1204 347 1198 414 l 1204 165 q 1128 47 1198 92 q 936 0 1058 1 l 320 0 m 825 678 l 825 743 l 429 743 l 429 627 l 768 627 q 825 678 818 629 m 825 320 q 768 372 818 369 l 429 372 l 429 255 l 825 255 l 825 320 z "},"C":{"ha":1256,"x_min":52,"x_max":1204,"o":"m 52 833 q 128 951 58 906 q 320 998 198 997 l 936 998 q 1128 951 1058 997 q 1204 833 1198 906 l 1204 675 q 1069 572 1192 579 l 960 572 q 825 675 837 579 l 825 743 l 429 743 l 429 255 l 825 255 l 825 323 q 960 426 837 419 l 1069 426 q 1204 323 1192 419 l 1204 165 q 1128 47 1198 92 q 936 0 1058 1 l 320 0 q 128 47 198 1 q 52 165 58 92 l 52 833 z "},"D":{"ha":1251,"x_min":52,"x_max":1199,"o":"m 822 608 q 678 743 823 718 l 429 743 l 429 255 l 678 255 q 822 391 823 281 l 822 608 m 52 838 q 128 951 58 906 q 320 998 198 997 l 779 998 q 996 941 888 997 q 1152 802 1104 884 q 1199 605 1199 719 l 1199 393 q 1152 197 1199 279 q 996 58 1104 114 q 779 0 888 1 l 320 0 q 128 47 198 1 q 52 160 58 92 l 52 838 z "},"E":{"ha":1253,"x_min":52,"x_max":1202,"o":"m 52 833 q 128 951 58 906 q 320 998 198 997 l 1128 998 q 1202 911 1199 996 l 1202 827 q 1126 741 1199 743 l 429 741 l 429 624 l 1074 624 q 1147 537 1145 621 l 1147 461 q 1074 374 1145 377 l 429 374 l 429 258 l 1126 258 q 1202 171 1199 255 l 1202 87 q 1128 0 1199 3 l 320 0 q 128 47 198 1 q 52 165 58 92 l 52 833 z "},"F":{"ha":1253,"x_min":52,"x_max":1202,"o":"m 52 833 q 128 951 58 906 q 320 998 198 997 l 1128 998 q 1202 911 1199 996 l 1202 827 q 1126 741 1199 743 l 429 741 l 429 624 l 1074 624 q 1147 537 1145 621 l 1147 461 q 1074 374 1145 377 l 429 374 l 429 103 q 293 0 416 7 l 187 0 q 52 103 64 7 l 52 833 z "},"G":{"ha":1253,"x_min":52,"x_max":1202,"o":"m 320 0 q 128 47 198 1 q 52 165 58 92 l 52 833 q 128 951 58 906 q 320 998 198 997 l 1128 998 q 1202 911 1199 996 l 1202 827 q 1126 741 1199 743 l 429 741 l 429 255 l 825 255 l 825 369 l 632 369 q 559 456 562 372 l 559 540 q 635 627 562 624 l 933 627 q 1125 580 1055 625 q 1202 461 1195 534 l 1202 165 q 1125 47 1195 92 q 933 0 1055 1 l 320 0 z "},"H":{"ha":1251,"x_min":52,"x_max":1199,"o":"m 187 0 q 52 103 64 7 l 52 897 q 187 998 64 991 l 296 998 q 431 895 419 991 l 431 627 l 819 627 l 819 895 q 955 998 831 991 l 1063 998 q 1199 897 1187 991 l 1199 103 q 1063 0 1187 7 l 955 0 q 819 103 831 7 l 819 374 l 431 374 l 431 103 q 296 0 419 7 l 187 0 z "},"I":{"ha":483,"x_min":52,"x_max":431,"o":"m 187 0 q 52 103 64 7 l 52 897 q 187 998 64 991 l 296 998 q 431 895 419 991 l 431 103 q 296 0 419 7 l 187 0 z "},"J":{"ha":1256,"x_min":52,"x_max":1204,"o":"m 1204 165 q 1128 47 1198 92 q 936 0 1058 1 l 320 0 q 128 47 198 1 q 52 165 58 92 l 52 323 q 187 426 64 419 l 296 426 q 431 323 419 419 l 431 255 l 827 255 l 827 897 q 963 998 840 991 l 1069 998 q 1204 895 1192 991 l 1204 165 z "},"K":{"ha":1253,"x_min":52,"x_max":1202,"o":"m 52 895 q 187 998 64 991 l 296 998 q 431 895 419 991 l 431 625 l 747 625 l 822 898 q 958 998 840 991 l 1066 998 q 1202 895 1190 991 l 1115 586 q 1001 499 1084 521 q 1115 412 1084 477 l 1202 103 q 1066 0 1190 7 l 958 0 q 822 100 840 7 l 747 373 l 431 373 l 431 103 q 296 0 419 7 l 187 0 q 52 103 64 7 l 52 895 z "},"L":{"ha":1253,"x_min":52,"x_max":1202,"o":"m 52 165 l 52 895 q 187 998 64 991 l 293 998 q 429 895 416 991 l 429 258 l 1126 258 q 1202 171 1199 255 l 1202 87 q 1128 0 1199 3 l 320 0 q 128 47 198 1 q 52 165 58 92 z "},"M":{"ha":1473,"x_min":52,"x_max":1421,"o":"m 187 0 q 52 103 64 7 l 52 895 q 187 998 64 991 l 399 998 q 526 914 488 997 l 735 502 l 738 502 l 947 914 q 1074 998 985 997 l 1286 998 q 1421 895 1409 991 l 1421 103 q 1286 0 1409 7 l 1177 0 q 1042 103 1054 7 l 1042 361 l 903 81 q 776 0 868 1 l 697 0 q 570 81 605 1 l 431 361 l 431 103 q 296 0 419 7 l 187 0 z "},"N":{"ha":1253,"x_min":52,"x_max":1202,"o":"m 187 0 q 52 103 64 7 l 52 895 q 187 998 64 991 l 279 998 q 483 887 393 994 l 822 534 l 822 895 q 958 998 834 991 l 1066 998 q 1202 895 1190 991 l 1202 103 q 1066 0 1190 7 l 974 0 q 770 111 860 4 l 431 464 l 431 103 q 296 0 419 7 l 187 0 z "},"O":{"ha":1253,"x_min":52,"x_max":1202,"o":"m 320 0 q 128 47 198 1 q 52 165 58 92 l 52 833 q 128 951 58 906 q 320 998 198 997 l 933 998 q 1125 951 1055 997 q 1202 833 1195 906 l 1202 165 q 1125 47 1195 92 q 933 0 1055 1 l 320 0 m 823 255 l 823 743 l 431 743 l 431 255 l 823 255 z "},"P":{"ha":1256,"x_min":52,"x_max":1204,"o":"m 190 0 q 52 103 66 7 l 52 833 q 128 951 58 906 q 320 998 198 997 l 936 998 q 1128 951 1058 997 q 1204 833 1198 906 l 1204 537 q 1128 418 1198 464 q 936 372 1058 373 l 429 372 l 429 103 q 293 0 416 7 l 190 0 m 825 678 l 825 743 l 429 743 l 429 627 l 768 627 q 825 678 818 629 z "},"Q":{"ha":1253,"x_min":52,"x_max":1202,"o":"m 320 0 q 128 47 198 1 q 52 165 58 92 l 52 833 q 128 951 58 906 q 320 998 198 997 l 933 998 q 1125 951 1055 997 q 1202 833 1195 906 l 1202 165 q 1125 47 1195 92 q 933 0 1055 1 l 817 0 l 817 -90 q 681 -193 804 -186 l 572 -193 q 437 -90 449 -186 l 437 0 l 320 0 m 823 255 l 823 743 l 431 743 l 431 255 l 823 255 z "},"R":{"ha":1256,"x_min":52,"x_max":1204,"o":"m 190 0 q 52 103 66 7 l 52 833 q 128 951 58 906 q 320 998 198 997 l 936 998 q 1128 951 1058 997 q 1204 833 1198 906 l 1204 665 q 1135 551 1198 591 q 986 502 1073 510 q 1115 412 1084 477 l 1202 103 q 1066 0 1190 7 l 958 0 q 822 100 840 7 l 749 372 l 429 372 l 429 103 q 293 0 416 7 l 190 0 m 825 678 l 825 743 l 429 743 l 429 627 l 768 627 q 825 678 818 629 z "},"S":{"ha":1256,"x_min":52,"x_max":1204,"o":"m 114 534 q 52 648 58 568 l 52 833 q 128 951 58 906 q 320 998 198 997 l 936 998 q 1128 951 1058 997 q 1204 833 1198 906 l 1204 675 q 1069 572 1192 579 l 960 572 q 825 675 837 579 l 825 743 l 431 743 l 431 688 l 1142 464 q 1204 350 1198 430 l 1204 165 q 1128 47 1198 92 q 936 0 1058 1 l 320 0 q 128 47 198 1 q 52 165 58 92 l 52 323 q 187 426 64 419 l 296 426 q 431 323 419 419 l 431 255 l 825 255 l 825 311 l 114 534 z "},"T":{"ha":1253,"x_min":52,"x_max":1202,"o":"m 1128 998 q 1202 911 1199 996 l 1202 827 q 1126 741 1199 743 l 817 741 l 817 103 q 681 0 804 7 l 572 0 q 437 103 449 7 l 437 741 l 127 741 q 52 827 54 743 l 52 911 q 125 998 54 996 l 1128 998 z "},"U":{"ha":1256,"x_min":52,"x_max":1204,"o":"m 1204 165 q 1128 47 1198 92 q 936 0 1058 1 l 320 0 q 128 47 198 1 q 52 165 58 92 l 52 895 q 187 998 64 991 l 296 998 q 431 895 419 991 l 431 255 l 827 255 l 827 897 q 963 998 840 991 l 1069 998 q 1204 895 1192 991 l 1204 165 z "},"V":{"ha":1240,"x_min":46,"x_max":1194,"o":"m 401 0 q 208 47 279 1 q 130 165 137 92 l 46 898 q 182 998 58 991 l 290 998 q 426 895 414 991 l 499 255 l 741 255 l 814 895 q 949 998 826 991 l 1058 998 q 1194 898 1181 991 l 1109 165 q 1031 47 1103 92 q 838 0 960 1 l 401 0 z "},"W":{"ha":1503,"x_min":46,"x_max":1457,"o":"m 282 0 q 146 103 159 7 l 46 898 q 182 998 58 991 l 290 998 q 426 895 414 991 l 483 458 l 586 898 q 719 998 600 986 l 784 998 q 917 898 903 986 l 1020 458 l 1077 895 q 1213 998 1089 991 l 1321 998 q 1457 898 1444 991 l 1356 103 q 1221 0 1344 7 l 979 0 q 836 84 875 0 l 751 388 l 667 84 q 524 0 628 0 l 282 0 z "},"X":{"ha":1256,"x_min":52,"x_max":1204,"o":"m 825 898 q 960 998 842 991 l 1069 998 q 1204 895 1192 991 l 1118 586 q 1004 499 1086 521 q 1118 412 1086 477 l 1204 103 q 1069 0 1192 7 l 960 0 q 825 100 842 7 l 750 373 l 506 373 l 431 100 q 296 0 414 7 l 187 0 q 52 103 64 7 l 138 412 q 252 499 170 477 q 138 586 170 521 l 52 895 q 187 998 64 991 l 296 998 q 431 898 414 991 l 506 625 l 750 625 l 825 898 z "},"Y":{"ha":1221,"x_min":35,"x_max":1185,"o":"m 399 374 q 216 417 277 376 q 133 545 155 458 l 35 895 q 171 998 47 991 l 279 998 q 415 898 397 991 l 488 627 l 732 627 l 806 898 q 941 998 823 991 l 1050 998 q 1185 895 1173 991 l 1088 545 q 1005 417 1066 458 q 822 374 944 376 l 800 374 l 800 103 q 665 0 788 7 l 556 0 q 420 103 433 7 l 420 374 l 399 374 z "},"Z":{"ha":1256,"x_min":52,"x_max":1204,"o":"m 1142 589 l 434 255 l 1126 255 q 1204 171 1202 255 l 1204 87 q 1131 0 1202 3 l 320 0 q 128 47 198 1 q 52 165 58 92 l 52 293 q 114 407 58 373 l 827 743 l 130 743 q 52 827 54 743 l 52 911 q 125 998 54 996 l 936 998 q 1128 951 1058 997 q 1204 833 1198 906 l 1204 703 q 1142 589 1198 623 z "},"[":{"ha":605,"x_min":57,"x_max":567,"o":"m 57 901 q 134 1019 64 974 q 326 1066 203 1065 l 494 1066 q 567 979 564 1063 l 567 895 q 491 808 564 811 l 434 808 l 434 195 l 491 195 q 567 109 564 193 l 567 24 q 494 -62 564 -60 l 326 -62 q 134 -16 203 -61 q 57 103 64 30 l 57 901 z "},"\\":{"ha":583,"x_min":3,"x_max":581,"o":"m 452 -39 l 343 -46 q 201 47 220 -47 l 3 932 q 132 1043 9 1028 l 240 1050 q 382 958 363 1051 l 581 72 q 452 -39 574 -24 z "},"]":{"ha":605,"x_min":38,"x_max":548,"o":"m 548 901 l 548 103 q 471 -16 541 30 q 279 -62 401 -61 l 111 -62 q 38 24 41 -60 l 38 109 q 114 195 41 193 l 171 195 l 171 808 l 114 808 q 38 895 41 811 l 38 979 q 111 1066 41 1063 l 279 1066 q 471 1019 401 1065 q 548 901 541 974 z "},"^":{"ha":694,"x_min":0,"x_max":0,"o":""},"_":{"ha":925,"x_min":60,"x_max":865,"o":"m 792 250 q 865 163 863 247 l 865 87 q 792 0 863 3 l 133 0 q 60 87 62 3 l 60 163 q 133 250 62 247 l 792 250 z "},"`":{"ha":1185,"x_min":176,"x_max":1009,"o":"m 300 1438 l 941 1291 q 994 1191 1009 1274 l 978 1116 q 886 1047 956 1035 l 244 1194 q 191 1294 176 1211 l 208 1369 q 300 1438 229 1450 z "},"a":{"ha":1240,"x_min":46,"x_max":1194,"o":"m 401 998 l 838 998 q 1031 951 960 997 q 1109 833 1103 906 l 1194 100 q 1058 0 1181 7 l 949 0 q 814 103 826 7 l 800 225 l 439 225 l 426 103 q 290 0 414 7 l 182 0 q 46 100 58 7 l 130 833 q 208 951 137 906 q 401 998 279 997 m 741 743 l 499 743 l 469 477 l 770 477 l 741 743 z "},"b":{"ha":1256,"x_min":52,"x_max":1204,"o":"m 320 0 q 128 47 198 1 q 52 165 58 92 l 52 833 q 128 951 58 906 q 320 998 198 997 l 936 998 q 1128 951 1058 997 q 1204 833 1198 906 l 1204 651 q 1158 551 1198 585 q 1039 499 1119 517 q 1158 448 1119 481 q 1204 347 1198 414 l 1204 165 q 1128 47 1198 92 q 936 0 1058 1 l 320 0 m 825 678 l 825 743 l 429 743 l 429 627 l 768 627 q 825 678 818 629 m 825 320 q 768 372 818 369 l 429 372 l 429 255 l 825 255 l 825 320 z "},"c":{"ha":1256,"x_min":52,"x_max":1204,"o":"m 52 833 q 128 951 58 906 q 320 998 198 997 l 936 998 q 1128 951 1058 997 q 1204 833 1198 906 l 1204 675 q 1069 572 1192 579 l 960 572 q 825 675 837 579 l 825 743 l 429 743 l 429 255 l 825 255 l 825 323 q 960 426 837 419 l 1069 426 q 1204 323 1192 419 l 1204 165 q 1128 47 1198 92 q 936 0 1058 1 l 320 0 q 128 47 198 1 q 52 165 58 92 l 52 833 z "},"d":{"ha":1251,"x_min":52,"x_max":1199,"o":"m 822 608 q 678 743 823 718 l 429 743 l 429 255 l 678 255 q 822 391 823 281 l 822 608 m 52 838 q 128 951 58 906 q 320 998 198 997 l 779 998 q 996 941 888 997 q 1152 802 1104 884 q 1199 605 1199 719 l 1199 393 q 1152 197 1199 279 q 996 58 1104 114 q 779 0 888 1 l 320 0 q 128 47 198 1 q 52 160 58 92 l 52 838 z "},"e":{"ha":1253,"x_min":52,"x_max":1202,"o":"m 52 833 q 128 951 58 906 q 320 998 198 997 l 1128 998 q 1202 911 1199 996 l 1202 827 q 1126 741 1199 743 l 429 741 l 429 624 l 1074 624 q 1147 537 1145 621 l 1147 461 q 1074 374 1145 377 l 429 374 l 429 258 l 1126 258 q 1202 171 1199 255 l 1202 87 q 1128 0 1199 3 l 320 0 q 128 47 198 1 q 52 165 58 92 l 52 833 z "},"f":{"ha":1253,"x_min":52,"x_max":1202,"o":"m 52 833 q 128 951 58 906 q 320 998 198 997 l 1128 998 q 1202 911 1199 996 l 1202 827 q 1126 741 1199 743 l 429 741 l 429 624 l 1074 624 q 1147 537 1145 621 l 1147 461 q 1074 374 1145 377 l 429 374 l 429 103 q 293 0 416 7 l 187 0 q 52 103 64 7 l 52 833 z "},"g":{"ha":1253,"x_min":52,"x_max":1202,"o":"m 320 0 q 128 47 198 1 q 52 165 58 92 l 52 833 q 128 951 58 906 q 320 998 198 997 l 1128 998 q 1202 911 1199 996 l 1202 827 q 1126 741 1199 743 l 429 741 l 429 255 l 825 255 l 825 369 l 632 369 q 559 456 562 372 l 559 540 q 635 627 562 624 l 933 627 q 1125 580 1055 625 q 1202 461 1195 534 l 1202 165 q 1125 47 1195 92 q 933 0 1055 1 l 320 0 z "},"h":{"ha":1251,"x_min":52,"x_max":1199,"o":"m 187 0 q 52 103 64 7 l 52 897 q 187 998 64 991 l 296 998 q 431 895 419 991 l 431 627 l 819 627 l 819 895 q 955 998 831 991 l 1063 998 q 1199 897 1187 991 l 1199 103 q 1063 0 1187 7 l 955 0 q 819 103 831 7 l 819 374 l 431 374 l 431 103 q 296 0 419 7 l 187 0 z "},"i":{"ha":483,"x_min":52,"x_max":431,"o":"m 187 0 q 52 103 64 7 l 52 897 q 187 998 64 991 l 296 998 q 431 895 419 991 l 431 103 q 296 0 419 7 l 187 0 z "},"j":{"ha":1256,"x_min":52,"x_max":1204,"o":"m 1204 165 q 1128 47 1198 92 q 936 0 1058 1 l 320 0 q 128 47 198 1 q 52 165 58 92 l 52 323 q 187 426 64 419 l 296 426 q 431 323 419 419 l 431 255 l 827 255 l 827 897 q 963 998 840 991 l 1069 998 q 1204 895 1192 991 l 1204 165 z "},"k":{"ha":1253,"x_min":52,"x_max":1202,"o":"m 52 895 q 187 998 64 991 l 296 998 q 431 895 419 991 l 431 625 l 747 625 l 822 898 q 958 998 840 991 l 1066 998 q 1202 895 1190 991 l 1115 586 q 1001 499 1084 521 q 1115 412 1084 477 l 1202 103 q 1066 0 1190 7 l 958 0 q 822 100 840 7 l 747 373 l 431 373 l 431 103 q 296 0 419 7 l 187 0 q 52 103 64 7 l 52 895 z "},"l":{"ha":1253,"x_min":52,"x_max":1202,"o":"m 52 165 l 52 895 q 187 998 64 991 l 293 998 q 429 895 416 991 l 429 258 l 1126 258 q 1202 171 1199 255 l 1202 87 q 1128 0 1199 3 l 320 0 q 128 47 198 1 q 52 165 58 92 z "},"m":{"ha":1473,"x_min":52,"x_max":1421,"o":"m 187 0 q 52 103 64 7 l 52 895 q 187 998 64 991 l 399 998 q 526 914 488 997 l 735 502 l 738 502 l 947 914 q 1074 998 985 997 l 1286 998 q 1421 895 1409 991 l 1421 103 q 1286 0 1409 7 l 1177 0 q 1042 103 1054 7 l 1042 361 l 903 81 q 776 0 868 1 l 697 0 q 570 81 605 1 l 431 361 l 431 103 q 296 0 419 7 l 187 0 z "},"n":{"ha":1253,"x_min":52,"x_max":1202,"o":"m 187 0 q 52 103 64 7 l 52 895 q 187 998 64 991 l 279 998 q 483 887 393 994 l 822 534 l 822 895 q 958 998 834 991 l 1066 998 q 1202 895 1190 991 l 1202 103 q 1066 0 1190 7 l 974 0 q 770 111 860 4 l 431 464 l 431 103 q 296 0 419 7 l 187 0 z "},"o":{"ha":1253,"x_min":52,"x_max":1202,"o":"m 320 0 q 128 47 198 1 q 52 165 58 92 l 52 833 q 128 951 58 906 q 320 998 198 997 l 933 998 q 1125 951 1055 997 q 1202 833 1195 906 l 1202 165 q 1125 47 1195 92 q 933 0 1055 1 l 320 0 m 823 255 l 823 743 l 431 743 l 431 255 l 823 255 z "},"p":{"ha":1256,"x_min":52,"x_max":1204,"o":"m 190 0 q 52 103 66 7 l 52 833 q 128 951 58 906 q 320 998 198 997 l 936 998 q 1128 951 1058 997 q 1204 833 1198 906 l 1204 537 q 1128 418 1198 464 q 936 372 1058 373 l 429 372 l 429 103 q 293 0 416 7 l 190 0 m 825 678 l 825 743 l 429 743 l 429 627 l 768 627 q 825 678 818 629 z "},"q":{"ha":1253,"x_min":52,"x_max":1202,"o":"m 320 0 q 128 47 198 1 q 52 165 58 92 l 52 833 q 128 951 58 906 q 320 998 198 997 l 933 998 q 1125 951 1055 997 q 1202 833 1195 906 l 1202 165 q 1125 47 1195 92 q 933 0 1055 1 l 817 0 l 817 -90 q 681 -193 804 -186 l 572 -193 q 437 -90 449 -186 l 437 0 l 320 0 m 823 255 l 823 743 l 431 743 l 431 255 l 823 255 z "},"r":{"ha":1256,"x_min":52,"x_max":1204,"o":"m 190 0 q 52 103 66 7 l 52 833 q 128 951 58 906 q 320 998 198 997 l 936 998 q 1128 951 1058 997 q 1204 833 1198 906 l 1204 665 q 1135 551 1198 591 q 986 502 1073 510 q 1115 412 1084 477 l 1202 103 q 1066 0 1190 7 l 958 0 q 822 100 840 7 l 749 372 l 429 372 l 429 103 q 293 0 416 7 l 190 0 m 825 678 l 825 743 l 429 743 l 429 627 l 768 627 q 825 678 818 629 z "},"s":{"ha":1256,"x_min":52,"x_max":1204,"o":"m 114 534 q 52 648 58 568 l 52 833 q 128 951 58 906 q 320 998 198 997 l 936 998 q 1128 951 1058 997 q 1204 833 1198 906 l 1204 675 q 1069 572 1192 579 l 960 572 q 825 675 837 579 l 825 743 l 431 743 l 431 688 l 1142 464 q 1204 350 1198 430 l 1204 165 q 1128 47 1198 92 q 936 0 1058 1 l 320 0 q 128 47 198 1 q 52 165 58 92 l 52 323 q 187 426 64 419 l 296 426 q 431 323 419 419 l 431 255 l 825 255 l 825 311 l 114 534 z "},"t":{"ha":1253,"x_min":52,"x_max":1202,"o":"m 1128 998 q 1202 911 1199 996 l 1202 827 q 1126 741 1199 743 l 817 741 l 817 103 q 681 0 804 7 l 572 0 q 437 103 449 7 l 437 741 l 127 741 q 52 827 54 743 l 52 911 q 125 998 54 996 l 1128 998 z "},"u":{"ha":1256,"x_min":52,"x_max":1204,"o":"m 1204 165 q 1128 47 1198 92 q 936 0 1058 1 l 320 0 q 128 47 198 1 q 52 165 58 92 l 52 895 q 187 998 64 991 l 296 998 q 431 895 419 991 l 431 255 l 827 255 l 827 897 q 963 998 840 991 l 1069 998 q 1204 895 1192 991 l 1204 165 z "},"v":{"ha":1240,"x_min":46,"x_max":1194,"o":"m 401 0 q 208 47 279 1 q 130 165 137 92 l 46 898 q 182 998 58 991 l 290 998 q 426 895 414 991 l 499 255 l 741 255 l 814 895 q 949 998 826 991 l 1058 998 q 1194 898 1181 991 l 1109 165 q 1031 47 1103 92 q 838 0 960 1 l 401 0 z "},"w":{"ha":1503,"x_min":46,"x_max":1457,"o":"m 282 0 q 146 103 159 7 l 46 898 q 182 998 58 991 l 290 998 q 426 895 414 991 l 483 458 l 586 898 q 719 998 600 986 l 784 998 q 917 898 903 986 l 1020 458 l 1077 895 q 1213 998 1089 991 l 1321 998 q 1457 898 1444 991 l 1356 103 q 1221 0 1344 7 l 979 0 q 836 84 875 0 l 751 388 l 667 84 q 524 0 628 0 l 282 0 z "},"x":{"ha":1256,"x_min":52,"x_max":1204,"o":"m 825 898 q 960 998 842 991 l 1069 998 q 1204 895 1192 991 l 1118 586 q 1004 499 1086 521 q 1118 412 1086 477 l 1204 103 q 1069 0 1192 7 l 960 0 q 825 100 842 7 l 750 373 l 506 373 l 431 100 q 296 0 414 7 l 187 0 q 52 103 64 7 l 138 412 q 252 499 170 477 q 138 586 170 521 l 52 895 q 187 998 64 991 l 296 998 q 431 898 414 991 l 506 625 l 750 625 l 825 898 z "},"y":{"ha":1221,"x_min":35,"x_max":1185,"o":"m 399 374 q 216 417 277 376 q 133 545 155 458 l 35 895 q 171 998 47 991 l 279 998 q 415 898 397 991 l 488 627 l 732 627 l 806 898 q 941 998 823 991 l 1050 998 q 1185 895 1173 991 l 1088 545 q 1005 417 1066 458 q 822 374 944 376 l 800 374 l 800 103 q 665 0 788 7 l 556 0 q 420 103 433 7 l 420 374 l 399 374 z "},"z":{"ha":1256,"x_min":52,"x_max":1204,"o":"m 1142 589 l 434 255 l 1126 255 q 1204 171 1202 255 l 1204 87 q 1131 0 1202 3 l 320 0 q 128 47 198 1 q 52 165 58 92 l 52 293 q 114 407 58 373 l 827 743 l 130 743 q 52 827 54 743 l 52 911 q 125 998 54 996 l 936 998 q 1128 951 1058 997 q 1204 833 1198 906 l 1204 703 q 1142 589 1198 623 z "},"{":{"ha":694,"x_min":0,"x_max":0,"o":""},"|":{"ha":374,"x_min":62,"x_max":312,"o":"m 312 -18 q 225 -91 309 -88 l 149 -91 q 62 -18 65 -88 l 62 1054 q 149 1127 65 1124 l 225 1127 q 312 1054 309 1124 l 312 -18 z "},"}":{"ha":694,"x_min":0,"x_max":0,"o":""},"~":{"ha":694,"x_min":0,"x_max":0,"o":""}," ":{"ha":694,"x_min":0,"x_max":0,"o":""},"¡":{"ha":602,"x_min":76,"x_max":526,"o":"m 247 998 l 355 998 q 491 895 479 991 l 491 844 q 355 741 479 747 l 247 741 q 111 842 123 747 l 111 895 q 247 998 123 991 m 453 0 l 149 0 q 76 87 79 3 l 76 171 l 111 567 q 247 675 152 666 l 355 675 q 491 567 450 666 l 526 171 l 526 87 q 453 0 524 3 z "},"¢":{"ha":1256,"x_min":52,"x_max":1204,"o":"m 52 833 q 128 951 58 906 q 320 998 198 997 l 578 998 l 586 1047 q 723 1141 604 1141 q 849 1021 841 1118 l 845 998 l 936 998 q 1128 951 1058 997 q 1204 833 1198 906 l 1204 675 q 1069 572 1192 579 l 960 572 q 825 675 837 579 l 825 743 l 803 743 l 720 255 l 825 255 l 825 323 q 960 426 837 419 l 1069 426 q 1204 323 1192 419 l 1204 165 q 1128 47 1198 92 q 936 0 1058 1 l 678 0 l 670 -45 q 533 -140 652 -140 q 407 -20 415 -118 l 411 0 l 320 0 q 128 47 198 1 q 52 165 58 92 l 52 833 m 429 743 l 429 255 l 453 255 l 534 743 l 429 743 z "},"£":{"ha":1329,"x_min":49,"x_max":1280,"o":"m 127 165 q 174 374 126 186 l 122 374 q 49 461 52 377 l 49 537 q 122 624 52 621 l 174 624 q 177 805 132 726 q 330 941 222 884 q 548 998 438 997 l 849 998 q 1118 940 993 1001 q 1245 765 1242 879 l 1245 675 q 1109 572 1233 579 l 1001 572 q 865 675 878 579 l 865 703 q 811 743 861 743 l 621 743 q 545 627 506 727 l 648 627 q 724 537 722 621 l 724 461 q 651 374 722 377 l 537 374 l 507 255 q 616 281 576 254 q 705 307 655 308 q 789 281 749 308 q 901 255 830 255 l 901 274 q 1036 377 913 370 l 1145 377 q 1280 274 1268 370 l 1280 165 q 1204 47 1274 92 q 1012 0 1134 1 q 810 24 864 -4 q 705 52 755 52 q 593 23 652 50 q 396 0 534 -4 q 204 47 274 1 q 127 165 134 92 z "},"¤":{"ha":694,"x_min":0,"x_max":0,"o":""},"¥":{"ha":1240,"x_min":46,"x_max":1194,"o":"m 396 532 q 234 576 288 533 q 144 703 180 618 l 46 895 q 182 998 47 993 l 290 998 q 426 898 391 997 l 494 784 l 746 784 l 814 898 q 949 998 849 997 l 1058 998 q 1194 895 1192 993 l 1096 703 q 1006 576 1059 618 q 844 532 952 533 l 808 532 l 808 480 l 987 480 q 1061 415 1058 477 l 1061 388 q 987 323 1058 326 l 808 323 l 808 266 l 987 266 q 1061 201 1058 263 l 1061 174 q 987 109 1058 111 l 808 109 l 808 103 q 673 0 796 7 l 567 0 q 431 103 444 7 l 431 109 l 252 109 q 179 174 182 111 l 179 201 q 252 266 182 263 l 431 266 l 431 323 l 252 323 q 179 388 182 326 l 179 415 q 252 480 182 477 l 431 480 l 431 532 l 396 532 z "},"¦":{"ha":694,"x_min":0,"x_max":0,"o":""},"§":{"ha":694,"x_min":0,"x_max":0,"o":""},"¨":{"ha":1232,"x_min":127,"x_max":1104,"o":"m 127 1237 q 187 1379 127 1321 q 332 1438 247 1438 q 477 1379 418 1438 q 537 1237 537 1321 q 477 1095 537 1153 q 332 1036 418 1036 q 187 1095 247 1036 q 127 1237 127 1153 m 694 1240 q 754 1382 694 1324 q 899 1440 814 1440 q 1044 1382 985 1440 q 1104 1240 1104 1324 q 1044 1097 1104 1156 q 899 1039 985 1039 q 754 1097 814 1039 q 694 1240 694 1156 z "},"©":{"ha":694,"x_min":0,"x_max":0,"o":""},"ª":{"ha":694,"x_min":0,"x_max":0,"o":""},"«":{"ha":694,"x_min":0,"x_max":0,"o":""},"¬":{"ha":694,"x_min":0,"x_max":0,"o":""},"­":{"ha":694,"x_min":0,"x_max":0,"o":""},"®":{"ha":694,"x_min":0,"x_max":0,"o":""},"¯":{"ha":694,"x_min":0,"x_max":0,"o":""},"°":{"ha":1188,"x_min":380,"x_max":808,"o":"m 380 1242 q 442 1390 380 1329 q 594 1451 505 1451 q 746 1390 684 1451 q 808 1242 808 1329 q 746 1095 808 1156 q 594 1034 684 1034 q 442 1095 505 1034 q 380 1242 380 1156 m 524 1238 q 545 1187 524 1208 q 595 1166 566 1166 q 646 1187 625 1166 q 667 1238 667 1208 q 646 1289 667 1268 q 595 1310 625 1310 q 545 1289 566 1310 q 524 1238 524 1268 z "},"±":{"ha":694,"x_min":0,"x_max":0,"o":""},"²":{"ha":694,"x_min":0,"x_max":0,"o":""},"³":{"ha":694,"x_min":0,"x_max":0,"o":""},"´":{"ha":1185,"x_min":176,"x_max":1009,"o":"m 886 1438 q 978 1369 956 1450 l 994 1294 q 941 1194 1009 1211 l 300 1047 q 208 1116 229 1035 l 191 1191 q 244 1291 176 1274 l 886 1438 z "},"µ":{"ha":694,"x_min":0,"x_max":0,"o":""},"¶":{"ha":694,"x_min":0,"x_max":0,"o":""},"·":{"ha":694,"x_min":0,"x_max":0,"o":""},"¸":{"ha":1015,"x_min":228,"x_max":787,"o":"m 787 0 l 787 -163 q 710 -281 780 -236 q 518 -328 640 -327 l 301 -328 q 228 -241 231 -326 l 228 -157 q 304 -71 231 -73 l 410 -71 l 410 0 l 787 0 z "},"¹":{"ha":694,"x_min":0,"x_max":0,"o":""},"º":{"ha":694,"x_min":0,"x_max":0,"o":""},"»":{"ha":694,"x_min":0,"x_max":0,"o":""},"¼":{"ha":694,"x_min":0,"x_max":0,"o":""},"½":{"ha":694,"x_min":0,"x_max":0,"o":""},"¾":{"ha":694,"x_min":0,"x_max":0,"o":""},"¿":{"ha":1272,"x_min":60,"x_max":1213,"o":"m 122 464 l 453 602 q 583 678 477 673 l 692 678 q 827 575 815 671 l 827 562 q 765 448 821 481 l 439 311 l 439 255 l 833 255 l 833 323 q 968 426 845 419 l 1077 426 q 1213 323 1200 419 l 1213 165 q 1136 47 1206 92 q 944 0 1066 1 l 328 0 q 136 47 206 1 q 60 165 66 92 l 60 350 q 122 464 66 430 m 692 998 q 827 895 815 991 l 827 842 q 692 741 815 747 l 583 741 q 448 844 460 747 l 448 895 q 583 998 460 991 l 692 998 z "},"À":{"ha":1240,"x_min":46,"x_max":1194,"o":"m 401 998 l 838 998 q 1031 951 960 997 q 1109 833 1103 906 l 1194 100 q 1058 0 1181 7 l 949 0 q 814 103 826 7 l 800 225 l 439 225 l 426 103 q 290 0 414 7 l 182 0 q 46 100 58 7 l 130 833 q 208 951 137 906 q 401 998 279 997 m 741 743 l 499 743 l 469 477 l 770 477 l 741 743 m 327 1438 l 968 1291 q 1021 1191 1036 1274 l 1005 1116 q 913 1047 983 1035 l 271 1194 q 218 1294 203 1211 l 235 1369 q 327 1438 256 1450 z "},"Á":{"ha":1240,"x_min":46,"x_max":1194,"o":"m 401 998 l 838 998 q 1031 951 960 997 q 1109 833 1103 906 l 1194 100 q 1058 0 1181 7 l 949 0 q 814 103 826 7 l 800 225 l 439 225 l 426 103 q 290 0 414 7 l 182 0 q 46 100 58 7 l 130 833 q 208 951 137 906 q 401 998 279 997 m 741 743 l 499 743 l 469 477 l 770 477 l 741 743 m 913 1438 q 1005 1369 983 1450 l 1021 1294 q 968 1194 1036 1211 l 327 1047 q 235 1116 256 1035 l 218 1191 q 271 1291 203 1274 l 913 1438 z "},"Â":{"ha":1240,"x_min":46,"x_max":1194,"o":"m 401 998 l 838 998 q 1031 951 960 997 q 1109 833 1103 906 l 1194 100 q 1058 0 1181 7 l 949 0 q 814 103 826 7 l 800 225 l 439 225 l 426 103 q 290 0 414 7 l 182 0 q 46 100 58 7 l 130 833 q 208 951 137 906 q 401 998 279 997 m 741 743 l 499 743 l 469 477 l 770 477 l 741 743 m 566 1432 q 669 1430 616 1443 l 941 1289 q 996 1185 1008 1261 l 978 1114 q 886 1044 956 1032 l 614 1184 l 349 1047 q 256 1116 278 1035 l 239 1188 q 293 1291 227 1264 l 566 1432 z "},"Ã":{"ha":1240,"x_min":46,"x_max":1194,"o":"m 401 998 l 838 998 q 1031 951 960 997 q 1109 833 1103 906 l 1194 100 q 1058 0 1181 7 l 949 0 q 814 103 826 7 l 800 225 l 439 225 l 426 103 q 290 0 414 7 l 182 0 q 46 100 58 7 l 130 833 q 208 951 137 906 q 401 998 279 997 m 741 743 l 499 743 l 469 477 l 770 477 l 741 743 m 479 1424 q 583 1424 526 1443 l 718 1295 l 859 1424 q 951 1355 929 1436 l 968 1283 q 914 1180 970 1225 l 776 1047 q 666 1047 720 1028 l 525 1176 l 388 1050 q 307 1082 334 1027 l 279 1183 q 315 1275 269 1236 l 479 1424 z "},"Ä":{"ha":1240,"x_min":46,"x_max":1194,"o":"m 401 998 l 838 998 q 1031 951 960 997 q 1109 833 1103 906 l 1194 100 q 1058 0 1181 7 l 949 0 q 814 103 826 7 l 800 225 l 439 225 l 426 103 q 290 0 414 7 l 182 0 q 46 100 58 7 l 130 833 q 208 951 137 906 q 401 998 279 997 m 741 743 l 499 743 l 469 477 l 770 477 l 741 743 m 133 1237 q 193 1379 133 1321 q 338 1438 252 1438 q 483 1379 423 1438 q 543 1237 543 1321 q 483 1095 543 1153 q 338 1036 423 1036 q 193 1095 252 1036 q 133 1237 133 1153 m 700 1240 q 760 1382 700 1324 q 905 1440 819 1440 q 1050 1382 990 1440 q 1109 1240 1109 1324 q 1050 1097 1109 1156 q 905 1039 990 1039 q 760 1097 819 1039 q 700 1240 700 1156 z "},"Å":{"ha":1240,"x_min":46,"x_max":1194,"o":"m 401 998 l 838 998 q 1031 951 960 997 q 1109 833 1103 906 l 1194 100 q 1058 0 1181 7 l 949 0 q 814 103 826 7 l 800 225 l 439 225 l 426 103 q 290 0 414 7 l 182 0 q 46 100 58 7 l 130 833 q 208 951 137 906 q 401 998 279 997 m 741 743 l 499 743 l 469 477 l 770 477 l 741 743 m 401 1242 q 464 1390 401 1329 q 616 1451 526 1451 q 768 1390 705 1451 q 830 1242 830 1329 q 768 1095 830 1156 q 616 1034 705 1034 q 464 1095 526 1034 q 401 1242 401 1156 m 545 1238 q 566 1187 545 1208 q 617 1166 587 1166 q 668 1187 647 1166 q 689 1238 689 1208 q 668 1289 689 1268 q 617 1310 647 1310 q 566 1289 587 1310 q 545 1238 545 1268 z "},"Æ":{"ha":1318,"x_min":46,"x_max":1267,"o":"m 1194 998 q 1267 911 1264 996 l 1267 827 q 1191 741 1264 743 l 930 741 l 930 624 l 1139 624 q 1213 537 1210 621 l 1213 461 q 1139 374 1210 377 l 930 374 l 930 258 l 1191 258 q 1267 171 1264 255 l 1267 87 q 1194 0 1264 3 l 822 0 q 630 47 700 1 q 553 165 560 92 l 553 374 l 458 374 l 426 103 q 290 0 414 7 l 182 0 q 46 100 58 7 l 130 833 q 208 951 137 906 q 401 998 279 997 l 1194 998 m 499 743 l 488 624 l 553 624 l 553 743 l 499 743 z "},"Ç":{"ha":1256,"x_min":52,"x_max":1204,"o":"m 52 833 q 128 951 58 906 q 320 998 198 997 l 936 998 q 1128 951 1058 997 q 1204 833 1198 906 l 1204 675 q 1069 572 1192 579 l 960 572 q 825 675 837 579 l 825 743 l 429 743 l 429 255 l 825 255 l 825 323 q 960 426 837 419 l 1069 426 q 1204 323 1192 419 l 1204 165 q 1128 47 1198 92 q 936 0 1058 1 l 817 0 l 817 -163 q 740 -281 810 -236 q 548 -328 670 -327 l 331 -328 q 258 -241 260 -326 l 258 -157 q 334 -71 260 -73 l 439 -71 l 439 0 l 320 0 q 128 47 198 1 q 52 165 58 92 l 52 833 z "},"È":{"ha":1253,"x_min":52,"x_max":1202,"o":"m 52 833 q 128 951 58 906 q 320 998 198 997 l 1128 998 q 1202 911 1199 996 l 1202 827 q 1126 741 1199 743 l 429 741 l 429 624 l 1074 624 q 1147 537 1145 621 l 1147 461 q 1074 374 1145 377 l 429 374 l 429 258 l 1126 258 q 1202 171 1199 255 l 1202 87 q 1128 0 1199 3 l 320 0 q 128 47 198 1 q 52 165 58 92 l 52 833 m 338 1438 l 979 1291 q 1032 1191 1047 1274 l 1016 1116 q 924 1047 994 1035 l 282 1194 q 229 1294 214 1211 l 245 1369 q 338 1438 267 1450 z "},"É":{"ha":1253,"x_min":52,"x_max":1202,"o":"m 52 833 q 128 951 58 906 q 320 998 198 997 l 1128 998 q 1202 911 1199 996 l 1202 827 q 1126 741 1199 743 l 429 741 l 429 624 l 1074 624 q 1147 537 1145 621 l 1147 461 q 1074 374 1145 377 l 429 374 l 429 258 l 1126 258 q 1202 171 1199 255 l 1202 87 q 1128 0 1199 3 l 320 0 q 128 47 198 1 q 52 165 58 92 l 52 833 m 924 1438 q 1016 1369 994 1450 l 1032 1294 q 979 1194 1047 1211 l 338 1047 q 245 1116 267 1035 l 229 1191 q 282 1291 214 1274 l 924 1438 z "},"Ê":{"ha":1253,"x_min":52,"x_max":1202,"o":"m 52 833 q 128 951 58 906 q 320 998 198 997 l 1128 998 q 1202 911 1199 996 l 1202 827 q 1126 741 1199 743 l 429 741 l 429 624 l 1074 624 q 1147 537 1145 621 l 1147 461 q 1074 374 1145 377 l 429 374 l 429 258 l 1126 258 q 1202 171 1199 255 l 1202 87 q 1128 0 1199 3 l 320 0 q 128 47 198 1 q 52 165 58 92 l 52 833 m 576 1438 q 680 1435 627 1449 l 952 1294 q 1006 1191 1019 1267 l 989 1119 q 897 1050 967 1038 l 625 1190 l 359 1053 q 267 1122 289 1040 l 250 1194 q 304 1297 237 1270 l 576 1438 z "},"Ë":{"ha":1253,"x_min":52,"x_max":1202,"o":"m 52 833 q 128 951 58 906 q 320 998 198 997 l 1128 998 q 1202 911 1199 996 l 1202 827 q 1126 741 1199 743 l 429 741 l 429 624 l 1074 624 q 1147 537 1145 621 l 1147 461 q 1074 374 1145 377 l 429 374 l 429 258 l 1126 258 q 1202 171 1199 255 l 1202 87 q 1128 0 1199 3 l 320 0 q 128 47 198 1 q 52 165 58 92 l 52 833 m 136 1240 q 195 1382 136 1324 q 340 1440 255 1440 q 486 1382 426 1440 q 545 1240 545 1324 q 486 1097 545 1156 q 340 1039 426 1039 q 195 1097 255 1039 q 136 1240 136 1156 m 703 1242 q 762 1385 703 1326 q 907 1443 822 1443 q 1053 1385 993 1443 q 1112 1242 1112 1326 q 1053 1100 1112 1158 q 907 1042 993 1042 q 762 1100 822 1042 q 703 1242 703 1158 z "},"Ì":{"ha":483,"x_min":-14,"x_max":496,"o":"m 187 0 q 52 103 64 7 l 52 897 q 187 998 64 991 l 296 998 q 431 895 419 991 l 431 103 q 296 0 419 7 l 187 0 m 110 1443 l 426 1297 q 479 1196 496 1264 l 463 1122 q 370 1053 441 1040 l 54 1199 q 1 1299 -14 1217 l 18 1374 q 110 1443 39 1455 z "},"Í":{"ha":483,"x_min":-14,"x_max":496,"o":"m 187 0 q 52 103 64 7 l 52 897 q 187 998 64 991 l 296 998 q 431 895 419 991 l 431 103 q 296 0 419 7 l 187 0 m 373 1443 q 465 1374 444 1455 l 481 1299 q 429 1199 496 1217 l 113 1053 q 20 1122 42 1040 l 4 1196 q 57 1297 -14 1264 l 373 1443 z "},"Î":{"ha":486,"x_min":-90,"x_max":575,"o":"m 187 0 q 52 103 64 7 l 52 897 q 187 998 64 991 l 296 998 q 431 895 419 991 l 431 103 q 296 0 419 7 l 187 0 m 213 1438 q 273 1438 244 1446 l 505 1297 q 557 1196 575 1264 l 541 1122 q 449 1053 519 1040 l 243 1177 l 37 1053 q -56 1122 -34 1040 l -72 1196 q -19 1297 -90 1264 l 213 1438 z "},"Ï":{"ha":486,"x_min":-206,"x_max":692,"o":"m 187 0 q 52 103 64 7 l 52 897 q 187 998 64 991 l 296 998 q 431 895 419 991 l 431 103 q 296 0 419 7 l 187 0 m -206 1240 q -146 1382 -206 1324 q -1 1440 -87 1440 q 144 1382 84 1440 q 203 1240 203 1324 q 144 1097 203 1156 q -1 1039 84 1039 q -146 1097 -87 1039 q -206 1240 -206 1156 m 282 1240 q 342 1382 282 1324 q 487 1440 401 1440 q 632 1382 572 1440 q 692 1240 692 1324 q 632 1097 692 1156 q 487 1039 572 1039 q 342 1097 401 1039 q 282 1240 282 1156 z "},"Ð":{"ha":1335,"x_min":16,"x_max":1283,"o":"m 404 0 q 203 49 264 5 q 136 160 142 92 l 136 377 l 90 377 q 16 464 19 380 l 16 540 q 90 627 19 624 l 136 627 l 136 838 q 212 951 142 906 q 404 998 282 997 l 863 998 q 1072 939 975 994 q 1224 806 1169 884 q 1283 624 1279 727 l 1283 374 q 1224 193 1279 271 q 1072 59 1169 114 q 863 0 975 4 l 404 0 m 906 372 l 906 624 q 784 743 902 734 l 513 743 l 513 627 l 640 627 q 713 540 711 624 l 713 464 q 640 377 711 380 l 513 377 l 513 252 l 784 252 q 906 372 902 262 z "},"Ñ":{"ha":1253,"x_min":52,"x_max":1202,"o":"m 487 1424 q 591 1424 534 1443 l 726 1295 l 867 1424 q 959 1355 937 1436 l 977 1283 q 922 1180 978 1225 l 784 1047 q 674 1047 728 1028 l 533 1176 l 396 1050 q 315 1082 342 1027 l 288 1183 q 323 1275 277 1236 l 487 1424 m 187 0 q 52 103 64 7 l 52 895 q 187 998 64 991 l 279 998 q 483 887 393 994 l 822 534 l 822 895 q 958 998 834 991 l 1066 998 q 1202 895 1190 991 l 1202 103 q 1066 0 1190 7 l 974 0 q 770 111 860 4 l 431 464 l 431 103 q 296 0 419 7 l 187 0 z "},"Ò":{"ha":1253,"x_min":52,"x_max":1202,"o":"m 320 0 q 128 47 198 1 q 52 165 58 92 l 52 833 q 128 951 58 906 q 320 998 198 997 l 933 998 q 1125 951 1055 997 q 1202 833 1195 906 l 1202 165 q 1125 47 1195 92 q 933 0 1055 1 l 320 0 m 823 255 l 823 743 l 431 743 l 431 255 l 823 255 m 335 1438 l 977 1291 q 1029 1191 1044 1274 l 1013 1116 q 921 1047 991 1035 l 279 1194 q 227 1294 212 1211 l 243 1369 q 335 1438 264 1450 z "},"Ó":{"ha":1253,"x_min":52,"x_max":1202,"o":"m 320 0 q 128 47 198 1 q 52 165 58 92 l 52 833 q 128 951 58 906 q 320 998 198 997 l 933 998 q 1125 951 1055 997 q 1202 833 1195 906 l 1202 165 q 1125 47 1195 92 q 933 0 1055 1 l 320 0 m 823 255 l 823 743 l 431 743 l 431 255 l 823 255 m 921 1438 q 1013 1369 991 1450 l 1029 1294 q 977 1194 1044 1211 l 335 1047 q 243 1116 264 1035 l 227 1191 q 279 1291 212 1274 l 921 1438 z "},"Ô":{"ha":1253,"x_min":52,"x_max":1202,"o":"m 320 0 q 128 47 198 1 q 52 165 58 92 l 52 833 q 128 951 58 906 q 320 998 198 997 l 933 998 q 1125 951 1055 997 q 1202 833 1195 906 l 1202 165 q 1125 47 1195 92 q 933 0 1055 1 l 320 0 m 823 255 l 823 743 l 431 743 l 431 255 l 823 255 m 579 1435 q 682 1432 629 1446 l 955 1291 q 1009 1188 1021 1264 l 991 1116 q 899 1047 970 1035 l 628 1187 l 362 1050 q 270 1119 292 1038 l 252 1191 q 307 1294 240 1267 l 579 1435 z "},"Õ":{"ha":1253,"x_min":52,"x_max":1202,"o":"m 320 0 q 128 47 198 1 q 52 165 58 92 l 52 833 q 128 951 58 906 q 320 998 198 997 l 933 998 q 1125 951 1055 997 q 1202 833 1195 906 l 1202 165 q 1125 47 1195 92 q 933 0 1055 1 l 320 0 m 823 255 l 823 743 l 431 743 l 431 255 l 823 255 m 487 1424 q 591 1424 534 1443 l 726 1295 l 867 1424 q 959 1355 937 1436 l 977 1283 q 922 1180 978 1225 l 784 1047 q 674 1047 728 1028 l 533 1176 l 396 1050 q 315 1082 342 1027 l 288 1183 q 323 1275 277 1236 l 487 1424 z "},"Ö":{"ha":1253,"x_min":52,"x_max":1202,"o":"m 320 0 q 128 47 198 1 q 52 165 58 92 l 52 833 q 128 951 58 906 q 320 998 198 997 l 933 998 q 1125 951 1055 997 q 1202 833 1195 906 l 1202 165 q 1125 47 1195 92 q 933 0 1055 1 l 320 0 m 823 255 l 823 743 l 431 743 l 431 255 l 823 255 m 136 1240 q 195 1382 136 1324 q 340 1440 255 1440 q 486 1382 426 1440 q 545 1240 545 1324 q 486 1097 545 1156 q 340 1039 426 1039 q 195 1097 255 1039 q 136 1240 136 1156 m 703 1242 q 762 1385 703 1326 q 907 1443 822 1443 q 1053 1385 993 1443 q 1112 1242 1112 1326 q 1053 1100 1112 1158 q 907 1042 993 1042 q 762 1100 822 1042 q 703 1242 703 1158 z "},"×":{"ha":865,"x_min":62,"x_max":803,"o":"m 754 355 q 745 241 803 304 l 692 189 q 578 178 631 130 l 433 323 l 289 178 q 175 187 237 129 l 122 240 q 111 354 64 301 l 256 499 l 111 643 q 121 757 62 694 l 174 810 q 288 821 235 868 l 433 675 l 576 821 q 690 811 628 869 l 743 758 q 754 644 802 697 l 609 499 l 754 355 z "},"Ø":{"ha":1286,"x_min":52,"x_max":1234,"o":"m 320 0 q 128 47 198 1 q 52 165 58 92 l 52 833 q 128 951 58 906 q 320 998 198 997 l 583 998 l 591 1047 q 734 1139 610 1141 q 871 1021 864 1118 l 867 998 l 966 998 q 1158 951 1088 997 q 1234 833 1227 906 l 1234 165 q 1158 47 1227 92 q 966 0 1088 1 l 711 0 l 703 -50 q 552 -137 684 -145 q 423 -26 430 -122 l 427 0 l 320 0 m 867 255 l 867 743 l 827 743 l 750 255 l 867 255 m 423 743 l 423 255 l 467 255 l 544 743 l 423 743 z "},"Ù":{"ha":1256,"x_min":52,"x_max":1204,"o":"m 1204 165 q 1128 47 1198 92 q 936 0 1058 1 l 320 0 q 128 47 198 1 q 52 165 58 92 l 52 895 q 187 998 64 991 l 296 998 q 431 895 419 991 l 431 255 l 827 255 l 827 897 q 963 998 840 991 l 1069 998 q 1204 895 1192 991 l 1204 165 m 335 1438 l 977 1291 q 1029 1191 1044 1274 l 1013 1116 q 921 1047 991 1035 l 279 1194 q 227 1294 212 1211 l 243 1369 q 335 1438 264 1450 z "},"Ú":{"ha":1256,"x_min":52,"x_max":1204,"o":"m 1204 165 q 1128 47 1198 92 q 936 0 1058 1 l 320 0 q 128 47 198 1 q 52 165 58 92 l 52 895 q 187 998 64 991 l 296 998 q 431 895 419 991 l 431 255 l 827 255 l 827 897 q 963 998 840 991 l 1069 998 q 1204 895 1192 991 l 1204 165 m 335 1047 q 243 1116 264 1035 l 227 1191 q 279 1291 212 1274 l 921 1438 q 1013 1369 991 1450 l 1029 1294 q 977 1194 1044 1211 l 335 1047 z "},"Û":{"ha":1256,"x_min":52,"x_max":1204,"o":"m 1204 165 q 1128 47 1198 92 q 936 0 1058 1 l 320 0 q 128 47 198 1 q 52 165 58 92 l 52 895 q 187 998 64 991 l 296 998 q 431 895 419 991 l 431 255 l 827 255 l 827 897 q 963 998 840 991 l 1069 998 q 1204 895 1192 991 l 1204 165 m 576 1432 q 680 1430 627 1443 l 952 1289 q 1006 1185 1019 1261 l 989 1114 q 897 1044 967 1032 l 625 1184 l 359 1047 q 267 1116 289 1035 l 250 1188 q 304 1291 237 1264 l 576 1432 z "},"Ü":{"ha":1256,"x_min":52,"x_max":1204,"o":"m 1204 165 q 1128 47 1198 92 q 936 0 1058 1 l 320 0 q 128 47 198 1 q 52 165 58 92 l 52 895 q 187 998 64 991 l 296 998 q 431 895 419 991 l 431 255 l 827 255 l 827 897 q 963 998 840 991 l 1069 998 q 1204 895 1192 991 l 1204 165 m 138 1240 q 198 1382 138 1324 q 343 1440 258 1440 q 488 1382 429 1440 q 548 1240 548 1324 q 488 1097 548 1156 q 343 1039 429 1039 q 198 1097 258 1039 q 138 1240 138 1156 m 705 1242 q 765 1385 705 1326 q 910 1443 825 1443 q 1055 1385 996 1443 q 1115 1242 1115 1326 q 1055 1100 1115 1158 q 910 1042 996 1042 q 765 1100 825 1042 q 705 1242 705 1158 z "},"Ý":{"ha":1242,"x_min":46,"x_max":1196,"o":"m 410 374 q 227 417 288 376 q 144 545 165 458 l 46 895 q 182 998 58 991 l 290 998 q 426 898 408 991 l 499 627 l 743 627 l 817 898 q 952 998 834 991 l 1061 998 q 1196 895 1184 991 l 1099 545 q 1016 417 1077 458 q 833 374 955 376 l 811 374 l 811 103 q 675 0 799 7 l 567 0 q 431 103 444 7 l 431 374 l 410 374 m 327 1047 q 235 1116 256 1035 l 218 1191 q 271 1291 203 1274 l 913 1438 q 1005 1369 983 1450 l 1021 1294 q 968 1194 1036 1211 l 327 1047 z "},"Þ":{"ha":1253,"x_min":52,"x_max":1202,"o":"m 825 526 q 681 662 826 636 l 431 662 l 431 331 l 681 331 q 825 467 826 357 l 825 526 m 187 0 q 52 103 64 7 l 52 897 q 187 998 64 991 l 296 998 q 427 917 404 993 l 781 917 q 999 859 891 916 q 1154 720 1107 803 q 1202 524 1202 637 l 1202 469 q 1154 273 1202 355 q 999 134 1107 190 q 781 76 891 77 l 425 76 q 296 0 400 5 l 187 0 z "},"ß":{"ha":1278,"x_min":52,"x_max":1226,"o":"m 825 678 l 825 743 l 545 743 q 429 627 430 727 l 768 627 q 825 678 818 629 m 936 998 q 1128 951 1058 997 q 1204 833 1198 906 l 1204 651 q 1158 551 1198 585 q 1039 499 1119 517 q 1180 448 1141 481 q 1226 347 1219 414 l 1226 165 q 1149 47 1219 92 q 958 0 1080 1 l 637 0 q 559 87 562 3 l 559 168 q 632 255 562 252 l 846 255 l 846 320 q 789 372 840 369 l 429 372 l 429 16 q 293 -87 416 -80 l 187 -87 q 52 16 64 -80 l 52 605 q 99 802 52 719 q 254 941 146 884 q 472 998 362 997 l 936 998 z "},"à":{"ha":1240,"x_min":46,"x_max":1194,"o":"m 401 998 l 838 998 q 1031 951 960 997 q 1109 833 1103 906 l 1194 100 q 1058 0 1181 7 l 949 0 q 814 103 826 7 l 800 225 l 439 225 l 426 103 q 290 0 414 7 l 182 0 q 46 100 58 7 l 130 833 q 208 951 137 906 q 401 998 279 997 m 741 743 l 499 743 l 469 477 l 770 477 l 741 743 m 327 1438 l 968 1291 q 1021 1191 1036 1274 l 1005 1116 q 913 1047 983 1035 l 271 1194 q 218 1294 203 1211 l 235 1369 q 327 1438 256 1450 z "},"á":{"ha":1240,"x_min":46,"x_max":1194,"o":"m 401 998 l 838 998 q 1031 951 960 997 q 1109 833 1103 906 l 1194 100 q 1058 0 1181 7 l 949 0 q 814 103 826 7 l 800 225 l 439 225 l 426 103 q 290 0 414 7 l 182 0 q 46 100 58 7 l 130 833 q 208 951 137 906 q 401 998 279 997 m 741 743 l 499 743 l 469 477 l 770 477 l 741 743 m 913 1438 q 1005 1369 983 1450 l 1021 1294 q 968 1194 1036 1211 l 327 1047 q 235 1116 256 1035 l 218 1191 q 271 1291 203 1274 l 913 1438 z "},"â":{"ha":1240,"x_min":46,"x_max":1194,"o":"m 401 998 l 838 998 q 1031 951 960 997 q 1109 833 1103 906 l 1194 100 q 1058 0 1181 7 l 949 0 q 814 103 826 7 l 800 225 l 439 225 l 426 103 q 290 0 414 7 l 182 0 q 46 100 58 7 l 130 833 q 208 951 137 906 q 401 998 279 997 m 741 743 l 499 743 l 469 477 l 770 477 l 741 743 m 566 1432 q 669 1430 616 1443 l 941 1289 q 996 1185 1008 1261 l 978 1114 q 886 1044 956 1032 l 614 1184 l 349 1047 q 256 1116 278 1035 l 239 1188 q 293 1291 227 1264 l 566 1432 z "},"ã":{"ha":1240,"x_min":46,"x_max":1194,"o":"m 401 998 l 838 998 q 1031 951 960 997 q 1109 833 1103 906 l 1194 100 q 1058 0 1181 7 l 949 0 q 814 103 826 7 l 800 225 l 439 225 l 426 103 q 290 0 414 7 l 182 0 q 46 100 58 7 l 130 833 q 208 951 137 906 q 401 998 279 997 m 741 743 l 499 743 l 469 477 l 770 477 l 741 743 m 479 1424 q 583 1424 526 1443 l 718 1295 l 859 1424 q 951 1355 929 1436 l 968 1283 q 914 1180 970 1225 l 776 1047 q 666 1047 720 1028 l 525 1176 l 388 1050 q 307 1082 334 1027 l 279 1183 q 315 1275 269 1236 l 479 1424 z "},"ä":{"ha":1240,"x_min":46,"x_max":1194,"o":"m 401 998 l 838 998 q 1031 951 960 997 q 1109 833 1103 906 l 1194 100 q 1058 0 1181 7 l 949 0 q 814 103 826 7 l 800 225 l 439 225 l 426 103 q 290 0 414 7 l 182 0 q 46 100 58 7 l 130 833 q 208 951 137 906 q 401 998 279 997 m 741 743 l 499 743 l 469 477 l 770 477 l 741 743 m 133 1237 q 193 1379 133 1321 q 338 1438 252 1438 q 483 1379 423 1438 q 543 1237 543 1321 q 483 1095 543 1153 q 338 1036 423 1036 q 193 1095 252 1036 q 133 1237 133 1153 m 700 1240 q 760 1382 700 1324 q 905 1440 819 1440 q 1050 1382 990 1440 q 1109 1240 1109 1324 q 1050 1097 1109 1156 q 905 1039 990 1039 q 760 1097 819 1039 q 700 1240 700 1156 z "},"å":{"ha":1240,"x_min":46,"x_max":1194,"o":"m 401 998 l 838 998 q 1031 951 960 997 q 1109 833 1103 906 l 1194 100 q 1058 0 1181 7 l 949 0 q 814 103 826 7 l 800 225 l 439 225 l 426 103 q 290 0 414 7 l 182 0 q 46 100 58 7 l 130 833 q 208 951 137 906 q 401 998 279 997 m 741 743 l 499 743 l 469 477 l 770 477 l 741 743 m 401 1242 q 464 1390 401 1329 q 616 1451 526 1451 q 768 1390 705 1451 q 830 1242 830 1329 q 768 1095 830 1156 q 616 1034 705 1034 q 464 1095 526 1034 q 401 1242 401 1156 m 545 1238 q 566 1187 545 1208 q 617 1166 587 1166 q 668 1187 647 1166 q 689 1238 689 1208 q 668 1289 689 1268 q 617 1310 647 1310 q 566 1289 587 1310 q 545 1238 545 1268 z "},"æ":{"ha":1318,"x_min":46,"x_max":1267,"o":"m 1194 998 q 1267 911 1264 996 l 1267 827 q 1191 741 1264 743 l 930 741 l 930 624 l 1139 624 q 1213 537 1210 621 l 1213 461 q 1139 374 1210 377 l 930 374 l 930 258 l 1191 258 q 1267 171 1264 255 l 1267 87 q 1194 0 1264 3 l 822 0 q 630 47 700 1 q 553 165 560 92 l 553 374 l 458 374 l 426 103 q 290 0 414 7 l 182 0 q 46 100 58 7 l 130 833 q 208 951 137 906 q 401 998 279 997 l 1194 998 m 499 743 l 488 624 l 553 624 l 553 743 l 499 743 z "},"ç":{"ha":1256,"x_min":52,"x_max":1204,"o":"m 52 833 q 128 951 58 906 q 320 998 198 997 l 936 998 q 1128 951 1058 997 q 1204 833 1198 906 l 1204 675 q 1069 572 1192 579 l 960 572 q 825 675 837 579 l 825 743 l 429 743 l 429 255 l 825 255 l 825 323 q 960 426 837 419 l 1069 426 q 1204 323 1192 419 l 1204 165 q 1128 47 1198 92 q 936 0 1058 1 l 817 0 l 817 -163 q 740 -281 810 -236 q 548 -328 670 -327 l 331 -328 q 258 -241 260 -326 l 258 -157 q 334 -71 260 -73 l 439 -71 l 439 0 l 320 0 q 128 47 198 1 q 52 165 58 92 l 52 833 z "},"è":{"ha":1253,"x_min":52,"x_max":1202,"o":"m 52 833 q 128 951 58 906 q 320 998 198 997 l 1128 998 q 1202 911 1199 996 l 1202 827 q 1126 741 1199 743 l 429 741 l 429 624 l 1074 624 q 1147 537 1145 621 l 1147 461 q 1074 374 1145 377 l 429 374 l 429 258 l 1126 258 q 1202 171 1199 255 l 1202 87 q 1128 0 1199 3 l 320 0 q 128 47 198 1 q 52 165 58 92 l 52 833 m 338 1438 l 979 1291 q 1032 1191 1047 1274 l 1016 1116 q 924 1047 994 1035 l 282 1194 q 229 1294 214 1211 l 245 1369 q 338 1438 267 1450 z "},"é":{"ha":1253,"x_min":52,"x_max":1202,"o":"m 52 833 q 128 951 58 906 q 320 998 198 997 l 1128 998 q 1202 911 1199 996 l 1202 827 q 1126 741 1199 743 l 429 741 l 429 624 l 1074 624 q 1147 537 1145 621 l 1147 461 q 1074 374 1145 377 l 429 374 l 429 258 l 1126 258 q 1202 171 1199 255 l 1202 87 q 1128 0 1199 3 l 320 0 q 128 47 198 1 q 52 165 58 92 l 52 833 m 924 1438 q 1016 1369 994 1450 l 1032 1294 q 979 1194 1047 1211 l 338 1047 q 245 1116 267 1035 l 229 1191 q 282 1291 214 1274 l 924 1438 z "},"ê":{"ha":1253,"x_min":52,"x_max":1202,"o":"m 52 833 q 128 951 58 906 q 320 998 198 997 l 1128 998 q 1202 911 1199 996 l 1202 827 q 1126 741 1199 743 l 429 741 l 429 624 l 1074 624 q 1147 537 1145 621 l 1147 461 q 1074 374 1145 377 l 429 374 l 429 258 l 1126 258 q 1202 171 1199 255 l 1202 87 q 1128 0 1199 3 l 320 0 q 128 47 198 1 q 52 165 58 92 l 52 833 m 576 1438 q 680 1435 627 1449 l 952 1294 q 1006 1191 1019 1267 l 989 1119 q 897 1050 967 1038 l 625 1190 l 359 1053 q 267 1122 289 1040 l 250 1194 q 304 1297 237 1270 l 576 1438 z "},"ë":{"ha":1253,"x_min":52,"x_max":1202,"o":"m 52 833 q 128 951 58 906 q 320 998 198 997 l 1128 998 q 1202 911 1199 996 l 1202 827 q 1126 741 1199 743 l 429 741 l 429 624 l 1074 624 q 1147 537 1145 621 l 1147 461 q 1074 374 1145 377 l 429 374 l 429 258 l 1126 258 q 1202 171 1199 255 l 1202 87 q 1128 0 1199 3 l 320 0 q 128 47 198 1 q 52 165 58 92 l 52 833 m 136 1240 q 195 1382 136 1324 q 340 1440 255 1440 q 486 1382 426 1440 q 545 1240 545 1324 q 486 1097 545 1156 q 340 1039 426 1039 q 195 1097 255 1039 q 136 1240 136 1156 m 703 1242 q 762 1385 703 1326 q 907 1443 822 1443 q 1053 1385 993 1443 q 1112 1242 1112 1326 q 1053 1100 1112 1158 q 907 1042 993 1042 q 762 1100 822 1042 q 703 1242 703 1158 z "},"ì":{"ha":483,"x_min":-14,"x_max":496,"o":"m 187 0 q 52 103 64 7 l 52 897 q 187 998 64 991 l 296 998 q 431 895 419 991 l 431 103 q 296 0 419 7 l 187 0 m 110 1443 l 426 1297 q 479 1196 496 1264 l 463 1122 q 370 1053 441 1040 l 54 1199 q 1 1299 -14 1217 l 18 1374 q 110 1443 39 1455 z "},"í":{"ha":483,"x_min":-14,"x_max":496,"o":"m 187 0 q 52 103 64 7 l 52 897 q 187 998 64 991 l 296 998 q 431 895 419 991 l 431 103 q 296 0 419 7 l 187 0 m 373 1443 q 465 1374 444 1455 l 481 1299 q 429 1199 496 1217 l 113 1053 q 20 1122 42 1040 l 4 1196 q 57 1297 -14 1264 l 373 1443 z "},"î":{"ha":486,"x_min":-90,"x_max":575,"o":"m 187 0 q 52 103 64 7 l 52 897 q 187 998 64 991 l 296 998 q 431 895 419 991 l 431 103 q 296 0 419 7 l 187 0 m 213 1438 q 273 1438 244 1446 l 505 1297 q 557 1196 575 1264 l 541 1122 q 449 1053 519 1040 l 243 1177 l 37 1053 q -56 1122 -34 1040 l -72 1196 q -19 1297 -90 1264 l 213 1438 z "},"ï":{"ha":486,"x_min":-206,"x_max":692,"o":"m 187 0 q 52 103 64 7 l 52 897 q 187 998 64 991 l 296 998 q 431 895 419 991 l 431 103 q 296 0 419 7 l 187 0 m -206 1240 q -146 1382 -206 1324 q -1 1440 -87 1440 q 144 1382 84 1440 q 203 1240 203 1324 q 144 1097 203 1156 q -1 1039 84 1039 q -146 1097 -87 1039 q -206 1240 -206 1156 m 282 1240 q 342 1382 282 1324 q 487 1440 401 1440 q 632 1382 572 1440 q 692 1240 692 1324 q 632 1097 692 1156 q 487 1039 572 1039 q 342 1097 401 1039 q 282 1240 282 1156 z "},"ð":{"ha":694,"x_min":0,"x_max":0,"o":""},"ñ":{"ha":1253,"x_min":52,"x_max":1202,"o":"m 487 1424 q 591 1424 534 1443 l 726 1295 l 867 1424 q 959 1355 937 1436 l 977 1283 q 922 1180 978 1225 l 784 1047 q 674 1047 728 1028 l 533 1176 l 396 1050 q 315 1082 342 1027 l 288 1183 q 323 1275 277 1236 l 487 1424 m 187 0 q 52 103 64 7 l 52 895 q 187 998 64 991 l 279 998 q 483 887 393 994 l 822 534 l 822 895 q 958 998 834 991 l 1066 998 q 1202 895 1190 991 l 1202 103 q 1066 0 1190 7 l 974 0 q 770 111 860 4 l 431 464 l 431 103 q 296 0 419 7 l 187 0 z "},"ò":{"ha":1253,"x_min":52,"x_max":1202,"o":"m 320 0 q 128 47 198 1 q 52 165 58 92 l 52 833 q 128 951 58 906 q 320 998 198 997 l 933 998 q 1125 951 1055 997 q 1202 833 1195 906 l 1202 165 q 1125 47 1195 92 q 933 0 1055 1 l 320 0 m 823 255 l 823 743 l 431 743 l 431 255 l 823 255 m 335 1438 l 977 1291 q 1029 1191 1044 1274 l 1013 1116 q 921 1047 991 1035 l 279 1194 q 227 1294 212 1211 l 243 1369 q 335 1438 264 1450 z "},"ó":{"ha":1253,"x_min":52,"x_max":1202,"o":"m 320 0 q 128 47 198 1 q 52 165 58 92 l 52 833 q 128 951 58 906 q 320 998 198 997 l 933 998 q 1125 951 1055 997 q 1202 833 1195 906 l 1202 165 q 1125 47 1195 92 q 933 0 1055 1 l 320 0 m 823 255 l 823 743 l 431 743 l 431 255 l 823 255 m 921 1438 q 1013 1369 991 1450 l 1029 1294 q 977 1194 1044 1211 l 335 1047 q 243 1116 264 1035 l 227 1191 q 279 1291 212 1274 l 921 1438 z "},"ô":{"ha":1253,"x_min":52,"x_max":1202,"o":"m 320 0 q 128 47 198 1 q 52 165 58 92 l 52 833 q 128 951 58 906 q 320 998 198 997 l 933 998 q 1125 951 1055 997 q 1202 833 1195 906 l 1202 165 q 1125 47 1195 92 q 933 0 1055 1 l 320 0 m 823 255 l 823 743 l 431 743 l 431 255 l 823 255 m 579 1435 q 682 1432 629 1446 l 955 1291 q 1009 1188 1021 1264 l 991 1116 q 899 1047 970 1035 l 628 1187 l 362 1050 q 270 1119 292 1038 l 252 1191 q 307 1294 240 1267 l 579 1435 z "},"õ":{"ha":1253,"x_min":52,"x_max":1202,"o":"m 320 0 q 128 47 198 1 q 52 165 58 92 l 52 833 q 128 951 58 906 q 320 998 198 997 l 933 998 q 1125 951 1055 997 q 1202 833 1195 906 l 1202 165 q 1125 47 1195 92 q 933 0 1055 1 l 320 0 m 823 255 l 823 743 l 431 743 l 431 255 l 823 255 m 487 1424 q 591 1424 534 1443 l 726 1295 l 867 1424 q 959 1355 937 1436 l 977 1283 q 922 1180 978 1225 l 784 1047 q 674 1047 728 1028 l 533 1176 l 396 1050 q 315 1082 342 1027 l 288 1183 q 323 1275 277 1236 l 487 1424 z "},"ö":{"ha":1253,"x_min":52,"x_max":1202,"o":"m 320 0 q 128 47 198 1 q 52 165 58 92 l 52 833 q 128 951 58 906 q 320 998 198 997 l 933 998 q 1125 951 1055 997 q 1202 833 1195 906 l 1202 165 q 1125 47 1195 92 q 933 0 1055 1 l 320 0 m 823 255 l 823 743 l 431 743 l 431 255 l 823 255 m 136 1240 q 195 1382 136 1324 q 340 1440 255 1440 q 486 1382 426 1440 q 545 1240 545 1324 q 486 1097 545 1156 q 340 1039 426 1039 q 195 1097 255 1039 q 136 1240 136 1156 m 703 1242 q 762 1385 703 1326 q 907 1443 822 1443 q 1053 1385 993 1443 q 1112 1242 1112 1326 q 1053 1100 1112 1158 q 907 1042 993 1042 q 762 1100 822 1042 q 703 1242 703 1158 z "},"÷":{"ha":930,"x_min":62,"x_max":868,"o":"m 795 624 q 868 537 865 621 l 868 461 q 795 374 865 377 l 136 374 q 62 461 65 377 l 62 537 q 136 624 65 621 l 795 624 m 415 684 q 279 787 292 690 l 279 840 q 415 941 292 935 l 524 941 q 659 838 647 935 l 659 787 q 524 684 647 690 l 415 684 m 415 315 l 524 315 q 659 212 647 308 l 659 160 q 524 57 647 64 l 415 57 q 279 159 292 64 l 279 212 q 415 315 292 308 z "},"ø":{"ha":1286,"x_min":52,"x_max":1234,"o":"m 320 0 q 128 47 198 1 q 52 165 58 92 l 52 833 q 128 951 58 906 q 320 998 198 997 l 583 998 l 591 1047 q 734 1139 610 1141 q 871 1021 864 1118 l 867 998 l 966 998 q 1158 951 1088 997 q 1234 833 1227 906 l 1234 165 q 1158 47 1227 92 q 966 0 1088 1 l 711 0 l 703 -50 q 552 -137 684 -145 q 423 -26 430 -122 l 427 0 l 320 0 m 867 255 l 867 743 l 827 743 l 750 255 l 867 255 m 423 743 l 423 255 l 467 255 l 544 743 l 423 743 z "},"ù":{"ha":1256,"x_min":52,"x_max":1204,"o":"m 1204 165 q 1128 47 1198 92 q 936 0 1058 1 l 320 0 q 128 47 198 1 q 52 165 58 92 l 52 895 q 187 998 64 991 l 296 998 q 431 895 419 991 l 431 255 l 827 255 l 827 897 q 963 998 840 991 l 1069 998 q 1204 895 1192 991 l 1204 165 m 335 1438 l 977 1291 q 1029 1191 1044 1274 l 1013 1116 q 921 1047 991 1035 l 279 1194 q 227 1294 212 1211 l 243 1369 q 335 1438 264 1450 z "},"ú":{"ha":1256,"x_min":52,"x_max":1204,"o":"m 1204 165 q 1128 47 1198 92 q 936 0 1058 1 l 320 0 q 128 47 198 1 q 52 165 58 92 l 52 895 q 187 998 64 991 l 296 998 q 431 895 419 991 l 431 255 l 827 255 l 827 897 q 963 998 840 991 l 1069 998 q 1204 895 1192 991 l 1204 165 m 335 1047 q 243 1116 264 1035 l 227 1191 q 279 1291 212 1274 l 921 1438 q 1013 1369 991 1450 l 1029 1294 q 977 1194 1044 1211 l 335 1047 z "},"û":{"ha":1256,"x_min":52,"x_max":1204,"o":"m 1204 165 q 1128 47 1198 92 q 936 0 1058 1 l 320 0 q 128 47 198 1 q 52 165 58 92 l 52 895 q 187 998 64 991 l 296 998 q 431 895 419 991 l 431 255 l 827 255 l 827 897 q 963 998 840 991 l 1069 998 q 1204 895 1192 991 l 1204 165 m 576 1432 q 680 1430 627 1443 l 952 1289 q 1006 1185 1019 1261 l 989 1114 q 897 1044 967 1032 l 625 1184 l 359 1047 q 267 1116 289 1035 l 250 1188 q 304 1291 237 1264 l 576 1432 z "},"ü":{"ha":1256,"x_min":52,"x_max":1204,"o":"m 1204 165 q 1128 47 1198 92 q 936 0 1058 1 l 320 0 q 128 47 198 1 q 52 165 58 92 l 52 895 q 187 998 64 991 l 296 998 q 431 895 419 991 l 431 255 l 827 255 l 827 897 q 963 998 840 991 l 1069 998 q 1204 895 1192 991 l 1204 165 m 138 1240 q 198 1382 138 1324 q 343 1440 258 1440 q 488 1382 429 1440 q 548 1240 548 1324 q 488 1097 548 1156 q 343 1039 429 1039 q 198 1097 258 1039 q 138 1240 138 1156 m 705 1242 q 765 1385 705 1326 q 910 1443 825 1443 q 1055 1385 996 1443 q 1115 1242 1115 1326 q 1055 1100 1115 1158 q 910 1042 996 1042 q 765 1100 825 1042 q 705 1242 705 1158 z "},"ý":{"ha":1242,"x_min":46,"x_max":1196,"o":"m 410 374 q 227 417 288 376 q 144 545 165 458 l 46 895 q 182 998 58 991 l 290 998 q 426 898 408 991 l 499 627 l 743 627 l 817 898 q 952 998 834 991 l 1061 998 q 1196 895 1184 991 l 1099 545 q 1016 417 1077 458 q 833 374 955 376 l 811 374 l 811 103 q 675 0 799 7 l 567 0 q 431 103 444 7 l 431 374 l 410 374 m 327 1047 q 235 1116 256 1035 l 218 1191 q 271 1291 203 1274 l 913 1438 q 1005 1369 983 1450 l 1021 1294 q 968 1194 1036 1211 l 327 1047 z "},"þ":{"ha":1253,"x_min":52,"x_max":1202,"o":"m 825 526 q 681 662 826 636 l 431 662 l 431 331 l 681 331 q 825 467 826 357 l 825 526 m 187 0 q 52 103 64 7 l 52 897 q 187 998 64 991 l 296 998 q 427 917 404 993 l 781 917 q 999 859 891 916 q 1154 720 1107 803 q 1202 524 1202 637 l 1202 469 q 1154 273 1202 355 q 999 134 1107 190 q 781 76 891 77 l 425 76 q 296 0 400 5 l 187 0 z "},"ÿ":{"ha":1242,"x_min":46,"x_max":1196,"o":"m 410 374 q 227 417 288 376 q 144 545 165 458 l 46 895 q 182 998 58 991 l 290 998 q 426 898 408 991 l 499 627 l 743 627 l 817 898 q 952 998 834 991 l 1061 998 q 1196 895 1184 991 l 1099 545 q 1016 417 1077 458 q 833 374 955 376 l 811 374 l 811 103 q 675 0 799 7 l 567 0 q 431 103 444 7 l 431 374 l 410 374 m 136 1240 q 195 1382 136 1324 q 340 1440 255 1440 q 486 1382 426 1440 q 545 1240 545 1324 q 486 1097 545 1156 q 340 1039 426 1039 q 195 1097 255 1039 q 136 1240 136 1156 m 703 1242 q 762 1385 703 1326 q 907 1443 822 1443 q 1053 1385 993 1443 q 1112 1242 1112 1326 q 1053 1100 1112 1158 q 907 1042 993 1042 q 762 1100 822 1042 q 703 1242 703 1158 z "},"Œ":{"ha":1351,"x_min":52,"x_max":1299,"o":"m 52 833 q 128 951 58 906 q 320 998 198 997 l 505 998 q 680 962 613 997 q 854 998 746 997 l 1226 998 q 1299 911 1297 996 l 1299 827 q 1223 741 1297 743 l 963 741 l 963 624 l 1172 624 q 1245 537 1242 621 l 1245 461 q 1172 374 1242 377 l 963 374 l 963 258 l 1223 258 q 1299 171 1297 255 l 1299 87 q 1226 0 1297 3 l 854 0 q 680 37 746 1 q 505 0 613 1 l 320 0 q 128 47 198 1 q 52 165 58 92 l 52 833 m 429 743 l 429 255 l 586 255 l 586 743 l 429 743 z "},"œ":{"ha":1351,"x_min":52,"x_max":1299,"o":"m 52 833 q 128 951 58 906 q 320 998 198 997 l 505 998 q 680 962 613 997 q 854 998 746 997 l 1226 998 q 1299 911 1297 996 l 1299 827 q 1223 741 1297 743 l 963 741 l 963 624 l 1172 624 q 1245 537 1242 621 l 1245 461 q 1172 374 1242 377 l 963 374 l 963 258 l 1223 258 q 1299 171 1297 255 l 1299 87 q 1226 0 1297 3 l 854 0 q 680 37 746 1 q 505 0 613 1 l 320 0 q 128 47 198 1 q 52 165 58 92 l 52 833 m 429 743 l 429 255 l 586 255 l 586 743 l 429 743 z "},"Š":{"ha":1256,"x_min":52,"x_max":1204,"o":"m 114 534 q 52 648 58 568 l 52 833 q 128 951 58 906 q 320 998 198 997 l 936 998 q 1128 951 1058 997 q 1204 833 1198 906 l 1204 675 q 1069 572 1192 579 l 960 572 q 825 675 837 579 l 825 743 l 431 743 l 431 688 l 1142 464 q 1204 350 1198 430 l 1204 165 q 1128 47 1198 92 q 936 0 1058 1 l 320 0 q 128 47 198 1 q 52 165 58 92 l 52 323 q 187 426 64 419 l 296 426 q 431 323 419 419 l 431 255 l 825 255 l 825 311 l 114 534 m 574 1042 l 301 1183 q 247 1286 235 1210 l 264 1358 q 357 1427 286 1439 l 623 1290 l 894 1430 q 986 1360 964 1442 l 1004 1289 q 949 1185 1016 1213 l 677 1044 q 574 1042 624 1031 z "},"š":{"ha":1256,"x_min":52,"x_max":1204,"o":"m 114 534 q 52 648 58 568 l 52 833 q 128 951 58 906 q 320 998 198 997 l 936 998 q 1128 951 1058 997 q 1204 833 1198 906 l 1204 675 q 1069 572 1192 579 l 960 572 q 825 675 837 579 l 825 743 l 431 743 l 431 688 l 1142 464 q 1204 350 1198 430 l 1204 165 q 1128 47 1198 92 q 936 0 1058 1 l 320 0 q 128 47 198 1 q 52 165 58 92 l 52 323 q 187 426 64 419 l 296 426 q 431 323 419 419 l 431 255 l 825 255 l 825 311 l 114 534 m 574 1042 l 301 1183 q 247 1286 235 1210 l 264 1358 q 357 1427 286 1439 l 623 1290 l 894 1430 q 986 1360 964 1442 l 1004 1289 q 949 1185 1016 1213 l 677 1044 q 574 1042 624 1031 z "},"Ÿ":{"ha":1242,"x_min":46,"x_max":1196,"o":"m 410 374 q 227 417 288 376 q 144 545 165 458 l 46 895 q 182 998 58 991 l 290 998 q 426 898 408 991 l 499 627 l 743 627 l 817 898 q 952 998 834 991 l 1061 998 q 1196 895 1184 991 l 1099 545 q 1016 417 1077 458 q 833 374 955 376 l 811 374 l 811 103 q 675 0 799 7 l 567 0 q 431 103 444 7 l 431 374 l 410 374 m 136 1240 q 195 1382 136 1324 q 340 1440 255 1440 q 486 1382 426 1440 q 545 1240 545 1324 q 486 1097 545 1156 q 340 1039 426 1039 q 195 1097 255 1039 q 136 1240 136 1156 m 703 1242 q 762 1385 703 1326 q 907 1443 822 1443 q 1053 1385 993 1443 q 1112 1242 1112 1326 q 1053 1100 1112 1158 q 907 1042 993 1042 q 762 1100 822 1042 q 703 1242 703 1158 z "},"Ž":{"ha":694,"x_min":0,"x_max":0,"o":""},"ž":{"ha":694,"x_min":0,"x_max":0,"o":""},"ƒ":{"ha":694,"x_min":0,"x_max":0,"o":""},"ˆ":{"ha":1188,"x_min":203,"x_max":985,"o":"m 543 1432 q 646 1430 593 1443 l 918 1289 q 972 1185 985 1261 l 955 1114 q 863 1044 933 1032 l 591 1184 l 326 1047 q 233 1116 255 1035 l 216 1188 q 270 1291 203 1264 l 543 1432 z "},"˜":{"ha":1244,"x_min":271,"x_max":972,"o":"m 481 1424 q 586 1424 529 1443 l 720 1295 l 861 1424 q 954 1355 932 1436 l 971 1283 q 917 1180 972 1225 l 779 1047 q 669 1047 723 1028 l 528 1176 l 391 1050 q 309 1082 336 1027 l 282 1183 q 317 1275 271 1236 l 481 1424 z "},"–":{"ha":694,"x_min":0,"x_max":0,"o":""},"—":{"ha":694,"x_min":0,"x_max":0,"o":""},"‘":{"ha":477,"x_min":46,"x_max":431,"o":"m 426 898 l 426 845 q 290 743 414 750 l 182 743 q 46 846 58 750 l 46 925 q 269 1146 106 1074 q 426 898 431 1218 z "},"’":{"ha":477,"x_min":46,"x_max":431,"o":"m 52 1004 l 52 1057 q 187 1158 64 1152 l 296 1158 q 431 1055 419 1152 l 431 977 q 209 755 372 827 q 52 1004 46 684 z "},"‚":{"ha":477,"x_min":46,"x_max":431,"o":"m 52 103 l 52 156 q 187 258 64 251 l 296 258 q 431 155 419 251 l 431 76 q 209 -145 372 -73 q 52 103 46 -217 z "},"“":{"ha":724,"x_min":46,"x_max":678,"o":"m 328 898 l 328 845 q 193 743 316 750 l 182 743 q 46 846 58 750 l 46 939 q 206 1146 79 1074 q 328 898 334 1218 m 673 898 l 673 845 q 537 743 661 750 l 526 743 q 391 846 403 750 l 391 939 q 551 1146 423 1074 q 673 898 678 1218 z "},"”":{"ha":724,"x_min":46,"x_max":678,"o":"m 396 1004 l 396 1057 q 532 1158 408 1152 l 543 1158 q 678 1055 666 1152 l 678 963 q 518 755 646 827 q 396 1004 391 684 m 52 1004 l 52 1057 q 187 1158 64 1152 l 198 1158 q 334 1055 321 1152 l 334 963 q 174 755 301 827 q 52 1004 46 684 z "},"„":{"ha":724,"x_min":46,"x_max":678,"o":"m 396 103 l 396 156 q 532 258 408 251 l 543 258 q 678 155 666 251 l 678 62 q 518 -145 646 -73 q 396 103 391 -217 m 52 103 l 52 156 q 187 258 64 251 l 198 258 q 334 155 321 251 l 334 62 q 174 -145 301 -73 q 52 103 46 -217 z "},"†":{"ha":694,"x_min":0,"x_max":0,"o":""},"‡":{"ha":694,"x_min":0,"x_max":0,"o":""},"•":{"ha":694,"x_min":0,"x_max":0,"o":""},"…":{"ha":694,"x_min":0,"x_max":0,"o":""},"‰":{"ha":694,"x_min":0,"x_max":0,"o":""},"‹":{"ha":694,"x_min":0,"x_max":0,"o":""},"›":{"ha":694,"x_min":0,"x_max":0,"o":""},"€":{"ha":1362,"x_min":52,"x_max":1310,"o":"m 157 833 q 234 951 164 906 q 426 998 304 997 l 1042 998 q 1234 951 1164 997 q 1310 833 1303 906 l 1310 675 q 1175 572 1298 579 l 1066 572 q 930 675 943 579 l 930 743 l 534 743 l 534 692 l 575 692 q 648 627 646 689 l 648 600 q 575 534 646 537 l 534 534 l 534 464 l 572 464 q 646 399 643 461 l 646 372 q 572 307 643 309 l 534 307 l 534 255 l 930 255 l 930 323 q 1066 426 943 419 l 1175 426 q 1310 323 1298 419 l 1310 165 q 1234 47 1303 92 q 1042 0 1164 1 l 426 0 q 234 47 304 1 q 157 165 164 92 l 157 307 l 125 307 q 52 372 54 309 l 52 399 q 125 464 54 461 l 157 464 l 157 534 l 127 534 q 54 600 57 537 l 54 627 q 127 692 57 689 l 157 692 l 157 833 z "},"™":{"ha":694,"x_min":0,"x_max":0,"o":""},"∙":{"ha":694,"x_min":0,"x_max":0,"o":""}}}
